<svg xmlns="http://www.w3.org/2000/svg" viewBox="0 0 795.7 513.6"><g fill="currentColor"><path d="M0 119c4.7.2 11 .4 19 .6 8 .2 15.9.3 23.8.3 9 0 17.8-.1 26.2-.3 8.5-.2 14.5-.3 18.1-.3 23.3 0 40.8 4.1 52.3 12.4 11.6 8.3 17.4 18.9 17.4 31.9 0 6.6-2 13.3-5.9 20-3.9 6.8-10.1 12.8-18.3 18.1-8.3 5.3-19 9.1-32.2 11.6v.6c17.7 1.3 31.7 4.5 42 9.6s17.8 11.2 22.3 18.3c4.5 7.1 6.8 14.6 6.8 22.3 0 17.7-6.9 31.2-20.7 40.6-13.8 9.4-32.9 14.1-57.1 14.1-4.5 0-11.1-.1-19.6-.4-8.6-.3-18.8-.4-30.6-.4-8.3 0-16.4 0-24.4.1s-14.3.3-19 .7v-5.6c6-.4 10.5-1.1 13.5-2.3 3-1.1 5-3.4 6.1-6.8 1-3.4 1.6-8.5 1.6-15.2v-140c0-7-.5-12.1-1.6-15.4-1-3.3-3.1-5.5-6.2-6.8-3.1-1.2-7.6-1.9-13.4-2.1V119zm83.5 5.7c-7.3 0-12.1 1.6-14.2 4.8-2.2 3.2-3.2 9.7-3.2 19.5v139.9c0 9.8 1.2 16.1 3.7 19 2.4 2.9 7.7 4.4 15.8 4.4 13.5 0 23.5-4.3 29.8-12.8 6.3-8.6 9.5-20.7 9.5-36.5 0-14.5-3.6-25.7-10.9-33.6-7.2-7.9-19.2-11.8-36-11.8H54v-4.8h24.3c8.8 0 15.6-2.1 20.3-6.3 4.7-4.2 8-9.9 9.9-16.9 1.9-7.1 2.8-14.6 2.8-22.7 0-13.9-2.2-24.4-6.5-31.5-4.5-7.2-11.5-10.7-21.3-10.7zM289.1 118.5l68.6 176.6c2.6 6.8 5.6 11.4 8.9 14 3.3 2.5 6.3 3.9 8.9 4.1v5.6c-5.6-.4-12.3-.6-19.9-.7-7.6-.1-15.3-.1-23-.1-8.7 0-16.8 0-24.5.1-7.7.1-13.8.3-18.3.7v-5.6c9.6-.4 15.7-2 18.2-4.9 2.5-2.9 1.9-9.2-1.8-18.8l-48-131.2 5.1-7.3-42.9 111.7c-5.3 13.9-7.9 24.5-7.8 31.6.1 7.2 2.4 12 6.9 14.5s10.5 4 18.1 4.4v5.6c-6.2-.4-12.1-.6-17.8-.7-5.6-.1-11.4-.1-17.2-.1-4.1 0-8 0-11.7.1-3.7.1-6.9.3-9.7.7v-5.6c3.9-.7 8-3.3 12.1-7.6s8.2-11.7 12.1-22l64.3-165c3 .2 6.3.3 9.7.3 3.4-.2 6.7-.3 9.7-.4zm19.7 119v5.6h-84.1l2.8-5.6h81.3zM398.1 119c4.7.2 11 .4 19 .6 8 .2 15.9.3 23.8.3 9 0 17.8-.1 26.2-.3 8.5-.2 14.5-.3 18.1-.3 26.1 0 45.7 4.3 58.7 12.8 13 8.6 19.5 20.6 19.5 36.3 0 6.4-1.3 12.8-3.9 19.3-2.6 6.5-7.1 12.5-13.4 18.1-6.3 5.5-14.9 10-25.8 13.3-10.9 3.3-24.6 4.9-41.2 4.9H452v-5.6h24.3c11.1 0 19.5-2.1 25.2-6.3 5.7-4.2 9.7-9.9 11.8-16.9 2.2-7.1 3.2-14.9 3.2-23.6 0-14.9-2.6-26.4-7.9-34.6-5.3-8.2-14.3-12.3-27.1-12.3-7.3 0-12.1 1.6-14.2 4.8-2.2 3.2-3.2 9.7-3.2 19.5v139.9c0 6.8.5 11.8 1.6 15.2 1 3.4 3.1 5.6 6.1 6.8 3 1.1 7.5 1.9 13.5 2.3v5.6c-5.1-.4-11.5-.6-19.2-.7-7.7-.1-15.5-.1-23.4-.1-9 0-17.5 0-25.5.1s-14.3.3-19 .7v-5.6c6-.4 10.5-1.1 13.5-2.3 3-1.1 5-3.4 6.1-6.8 1-3.4 1.6-8.5 1.6-15.2v-140c0-7-.5-12.1-1.6-15.4-1-3.3-3.1-5.5-6.2-6.8-3.1-1.2-7.6-1.9-13.4-2.1V119zm53.3 100.2c8.1.2 15.1.6 21 1.1s11.1 1.1 15.7 1.6c4.5.5 8.6.8 12.1 1 17.1 1.5 29.8 5.2 37.9 11 8.2 5.8 13.5 14.6 15.9 26.2l6.5 29.1c1.7 7.5 3.5 12.8 5.4 15.8 1.9 3 4.6 4.5 8.2 4.5 2.4-.2 4.5-.8 6.1-1.8 1.6-1 3.3-2.6 5.2-4.7l3.9 3.4c-5.1 5.8-10.5 10-16.4 12.6-5.8 2.5-12.9 3.8-21.2 3.8-10.2 0-18.5-2.2-25.1-6.5-6.6-4.3-10.9-12.3-13-24l-5.1-28.2c-1.3-7.9-2.9-14.8-4.8-20.7-1.9-5.9-4.5-10.6-7.8-14.1s-7.9-5.2-13.7-5.2H452l-.6-4.9zM795.7 119v5.6c-6 .8-10.5 2.3-13.5 4.7-3 2.4-5 6.1-6.1 11.1-1 5.1-1.6 12.2-1.6 21.4v157.4c-2.3-.2-4.6-.3-6.9-.3-2.4 0-4.8.1-7.5.3l-122.4-155v108.3c0 10.3.6 18.3 1.7 23.8s3.6 9.5 7.5 11.8c3.9 2.4 9.9 4 18.2 4.9v5.6c-3.6-.4-8.3-.6-14.1-.7-5.8-.1-11.3-.1-16.4-.1-4.3 0-8.7 0-13.3.1-4.5.1-8.3.3-11.3.7V313c6-.9 10.5-2.5 13.5-4.8s5-6 6.1-11.1c1-5.2 1.6-12.3 1.6-21.3v-127c0-7-.5-12.1-1.6-15.4-1-3.3-3.1-5.5-6.2-6.8-3.1-1.2-7.6-1.9-13.4-2.1V119c3 .2 6.8.4 11.3.6 4.5.2 8.9.3 13.3.3 4.5 0 8.8-.1 13-.3 4.1-.2 7.9-.4 11.3-.6l109.2 134.6v-88.3c0-10.3-.6-18.3-1.7-23.8s-3.6-9.5-7.5-12c-3.9-2.4-9.9-4-18.2-4.8V119c3.6.2 8.3.4 14.1.6 5.8.2 11.3.3 16.4.3 4.5 0 9-.1 13.4-.3 4.4-.2 8.1-.4 11.1-.6z"/></g><g fill="currentColor"><path d="M404.1 9.1c-2.2 1.5-4.6 2.4-7.1 3-2.5.5-5.4.8-8.8.8-4 0-7.9-.3-11.8-.9-3.8-.6-7.6-1.2-11.2-1.8-3.6-.6-7.3-.9-10.8-.9-1.9 0-3.8.1-5.8.3-2 .2-3.4.6-4.4 1.3.5.6.9 1.4 1.2 2.4.3 1 .5 2 .5 2.9 0 1.2-.4 2.4-1.1 3.6-.7 1.2-1.9 1.7-3.5 1.7-1.3 0-2.3-.4-3-1.3-.7-.9-1-1.9-1-3.3 0-1.2.3-2.5 1-3.8.7-1.3 1.9-2.4 3.8-3.3 1.4-.7 2.9-1.2 4.5-1.5 1.6-.3 3.1-.5 4.6-.5 1.4-.1 2.5-.1 3.1-.1 4.3 0 8.2.3 11.9.9 3.7.6 7.3 1.2 11 1.7 3.6.6 7.5.9 11.7.9 3.2 0 5.9-.2 8.1-.7 2.2-.5 4.4-1.4 6.6-2.7l.5 1.3zm-37.7.4c1.1.1 2.1.2 2.9.4.8.1 1.6.2 2.5.4.8.1 1.8.2 2.9.4L361 62c-1 3.5-1 5.8-.2 6.9.9 1.1 3.2 1.7 7 1.8l-.4 1.8c-1.6-.1-3.6-.2-6-.2h-15.1c-2.4 0-4.3.1-5.8.2l.4-1.8c2.6-.1 4.5-.4 6-1 1.4-.5 2.6-1.4 3.4-2.6.8-1.2 1.6-3 2.2-5.1l13.9-52.5zm36.9-8.2c1.5-.1 3-.2 4.4-.4 1.4-.2 2.7-.5 3.9-.9l-20.3 72.4H383.4l19.9-71.1zM393.8 59c2.3-6.4 4.5-11.8 6.6-16.2 2.1-4.4 4.2-8 6.3-10.7 2.1-2.7 4.2-4.7 6.4-5.9 2.2-1.2 4.4-1.8 6.8-1.8 2.7 0 4.6.6 5.7 1.9 1.1 1.3 1.6 3 1.5 5.1-.1 2.1-.5 4.4-1.3 6.8L417 64.7c-.4 1.2-.7 2.4-.7 3.7-.1 1.3.7 2 2.2 2 1.2 0 2.3-.6 3.4-1.9 1.1-1.3 2.3-3.7 3.6-7.4l1.2-3.4h1.7l-2.3 6.7c-1.3 3.8-3 6.3-5.1 7.6-2.1 1.2-4 1.8-5.9 1.8-3.6 0-5.7-1.2-6.1-3.6-.4-2.4 0-5.5 1.2-9.2l8.7-26.1c.4-1.1.7-2.2.9-3.4.2-1.2.1-2.2-.2-3-.4-.8-1.2-1.2-2.6-1.2-2.6 0-5.3 1.9-8.4 5.6-3 3.7-6 8.8-8.9 15.3-2.9 6.5-5.5 14-7.8 22.5l1.9-11.7zM440.6 51.8c3.4-1.2 6.5-2.3 9.2-3.4 2.8-1.1 5-2.3 6.6-3.6 2.2-1.8 3.9-3.9 5.2-6.4 1.3-2.5 1.9-5.2 1.9-8.2 0-1.8-.1-2.9-.4-3.4-.2-.5-.6-.7-1.1-.7-1.9 0-3.9 1-6.2 3.1-2.2 2-4.4 4.8-6.4 8.2-2 3.4-3.7 7.2-5 11.3-1.3 4.1-2 8.3-2 12.5 0 3.1.6 5.3 1.7 6.7 1.2 1.4 2.7 2.1 4.6 2.1 2.2 0 4.5-.7 6.9-2 2.4-1.3 4.8-3.7 7.1-7.1l1.5.7c-1.2 2-2.7 3.9-4.6 5.8-1.9 1.9-4 3.4-6.3 4.6-2.3 1.2-4.8 1.8-7.4 1.8-3.7 0-6.6-1.1-8.8-3.2-2.2-2.2-3.2-5.4-3.2-9.6 0-2.6.5-5.5 1.5-8.8 1-3.2 2.4-6.5 4.1-9.8 1.8-3.2 3.9-6.2 6.4-9 2.5-2.7 5.3-4.9 8.3-6.6 3-1.6 6.3-2.5 9.8-2.5 1.9 0 3.5.5 4.8 1.5 1.3 1 2 2.5 2 4.5 0 2.4-.7 4.7-2.1 6.8-1.4 2.1-3.3 4-5.6 5.7-2.3 1.7-4.9 3.3-7.6 4.6-2.7 1.3-5.4 2.5-8 3.5-2.6 1-4.9 1.8-6.9 2.4v-1.5z"/></g><g fill="currentColor"><path d="M162.6 507.7c1.3 0 2.5-.4 3.5-1.1 1-.7 1.9-1.6 2.6-2.7 1.4-2.2 2.8-5.7 4.3-10.5 1.4-4.8 2.9-10.5 4.4-17.3 1.5-6.8 3-14.2 4.5-22.2l1.2 1.5c-1 5-2 10-3.1 15.2-1.1 5.1-2.2 10-3.3 14.6-1.1 4.6-2.3 8.6-3.4 12.1-1.1 3.4-2.3 5.9-3.4 7.3-.9 1.2-1.9 2.2-3.1 3.2-1.2.9-2.8 1.4-4.7 1.4-1.7 0-2.9-.4-3.5-1.1-.6-.8-.9-1.6-.9-2.7 0-1.2.4-2.4 1.1-3.5.7-1.1 1.8-1.7 3.2-1.7 1.1 0 1.9.3 2.2.9.4.6.5 1.3.5 1.9 0 .8-.2 1.7-.7 2.5-.5.8-1 1.5-1.6 2.1h.1c0 .1 0 .1.1.1zm36.6-3.5l-17-47.9c-.3.7-.6 1.3-.8 1.9-.2.5-.5 1.1-.8 1.9.4-1.8.5-3.1.4-4-.1-.8-.6-1.4-1.5-1.7-.9-.3-2.2-.5-4.1-.5l.4-1.5c.8 0 1.7.1 2.9.1 1.1 0 2.3.1 3.6.1 2.3 0 4.2-.1 5.9-.2l14 40.9c-.2 1.5-.4 2.8-.5 3.9-.1 1.1-.2 2.1-.4 3.2-.1 1.1-.3 2.4-.5 3.9h-1.6zm22.2-53.8c-1.4 0-2.5.4-3.5 1.1s-1.8 1.5-2.5 2.7c-2.2 3.3-4.5 9.1-6.8 17.4-2.3 8.3-4.9 19.2-7.8 32.6l-1-2c.9-4.1 1.9-8.5 3-13.3s2.2-9.5 3.5-14.1c1.2-4.6 2.5-8.8 3.8-12.5 1.3-3.7 2.7-6.6 4.1-8.7.9-1.3 2-2.4 3.3-3.3 1.3-.9 2.8-1.3 4.6-1.3 1.7 0 2.9.4 3.5 1.1.6.8.9 1.6.9 2.6 0 1.2-.4 2.4-1.1 3.5-.7 1.1-1.8 1.7-3.2 1.7-1.1 0-1.8-.3-2.2-.9-.4-.6-.6-1.3-.6-1.9 0-.8.2-1.7.7-2.5.5-.8 1-1.5 1.6-2.1h-.1c-.1-.1-.1-.1-.2-.1zM224.2 502.5c1.2 0 2.5-.7 4-2.2 1.5-1.5 3-3.5 4.6-6s3-5.4 4.3-8.6c1.3-3.2 2.4-6.5 3.1-10l-1.2 7.9c-2.8 7.8-5.5 13.3-8.3 16.5-2.8 3.2-5.6 4.8-8.6 4.8-2.3 0-4-.8-5.1-2.5-1.1-1.7-1.7-3.8-1.7-6.3 0-2.3.4-4.9 1.2-7.6.8-2.7 1.9-5.5 3.2-8.2 1.4-2.7 3-5.2 4.8-7.4 1.8-2.2 3.8-4 5.9-5.4 2.1-1.4 4.3-2 6.4-2 1.7 0 3 .8 3.9 2.5s1.1 4 .5 7l-.8.4c.3-2.6.2-4.7-.5-6.2-.7-1.6-1.8-2.4-3.4-2.4-1.6 0-3.3.9-5 2.8-1.7 1.9-3.3 4.4-4.8 7.4s-2.7 6.3-3.6 9.8c-.9 3.5-1.4 6.9-1.4 10.1 0 2.1.2 3.5.7 4.4.4.8 1 1.2 1.8 1.2zm18.4-36.1c1.2 0 2.3-.1 3.5-.3 1.2-.1 2.2-.4 3.2-.7l-9.1 32.2c-.1.4-.2 1-.4 1.7s-.2 1.3 0 1.9c.2.6.7.9 1.5.9 1 0 1.9-.5 2.8-1.6.9-1.1 1.8-3 2.8-5.8l.9-2.7h1.4l-1.8 5.3c-1.1 2.9-2.4 4.9-3.9 6-1.6 1.1-3 1.6-4.4 1.6-1.9 0-3.2-.6-4-1.9-.6-1.1-.8-2.4-.5-3.9.3-1.5.6-3 1-4.5l7-28.2zM287.2 476.2c-1.4-.7-2.6-1.7-3.8-3-1.2-1.3-1.7-2.9-1.5-4.9.1-1.1.5-1.9 1.2-2.4s1.4-.7 2-.7c1.7 0 2.9 1 3.5 2.9s.8 4.4.4 7.4c-.3 2.9-.9 5.7-1.7 8.5-.8 2.8-1.9 5.5-3.2 7.9-1.3 2.5-2.8 4.7-4.6 6.6-1.8 1.9-3.8 3.5-6 4.6-2.2 1.1-4.7 1.6-7.4 1.6-2.2 0-3.9-.4-5.1-1.3-1.2-.9-2.1-2-2.6-3.4s-.7-2.8-.6-4.3c.2-2.7 1-5.6 2.5-8.8 1.5-3.1 3.4-6.3 5.9-9.5 2.5-3.2 5.3-6.3 8.5-9.4-.8.3-1.6.7-2.5 1.2-.9.5-1.7 1-2.6 1.5s-1.6.9-2.4 1.3-1.5.5-2.2.5c-.9 0-1.7-.3-2.4-.9-.7-.6-1.4-.9-2.2-.9-.8 0-1.4.3-1.9 1s-1.1 1.8-1.6 3.5l-.8 2.7h-1.4l1.6-5.3c.8-2.9 1.9-4.9 3.1-5.9 1.2-1 2.5-1.5 3.8-1.5.9 0 1.7.2 2.3.7.6.5 1.3 1 1.9 1.4.7.5 1.4.7 2.4.7 1.2 0 2.3-.2 3.3-.5 1-.4 2-.9 2.8-1.7l.7-1.4 1.5.7c-2.6 3.2-4.8 6.3-6.6 9.5-1.8 3.2-3.3 6.4-4.4 9.7-1.1 3.3-1.8 6.6-2.1 10.1-.2 2.8 0 4.8.6 6 .6 1.2 1.4 1.8 2.5 1.8 2.3 0 4.4-.6 6.3-1.8 1.9-1.2 3.7-2.8 5.2-4.8s2.8-4.2 3.9-6.5c1.1-2.4 1.9-4.7 2.5-7 .8-2 1.1-4.1 1.2-5.9zM301.1 502.5c1.2 0 2.5-.7 4-2.2 1.5-1.5 3-3.5 4.6-6s3-5.4 4.3-8.6c1.3-3.2 2.4-6.5 3.1-10l-1.2 7.9c-2.8 7.8-5.5 13.3-8.3 16.5-2.8 3.2-5.6 4.8-8.6 4.8-2.3 0-4-.8-5.1-2.5-1.1-1.7-1.7-3.8-1.7-6.3 0-2.3.4-4.9 1.2-7.6.8-2.7 1.9-5.5 3.2-8.2 1.4-2.7 3-5.2 4.8-7.4 1.8-2.2 3.8-4 5.9-5.4 2.1-1.4 4.3-2 6.4-2 1.7 0 3 .8 3.9 2.5s1.1 4 .5 7l-.8.4c.3-2.6.2-4.7-.5-6.2-.7-1.6-1.8-2.4-3.4-2.4-1.6 0-3.3.9-5 2.8-1.7 1.9-3.3 4.4-4.8 7.4s-2.7 6.3-3.6 9.8c-.9 3.5-1.4 6.9-1.4 10.1 0 2.1.2 3.5.7 4.4.4.8 1.1 1.2 1.8 1.2zm18.4-36.1c1.2 0 2.3-.1 3.5-.3 1.2-.1 2.2-.4 3.2-.7l-9.1 32.2c-.1.4-.2 1-.4 1.7s-.2 1.3 0 1.9c.2.6.7.9 1.5.9 1 0 1.9-.5 2.8-1.6.9-1.1 1.8-3 2.8-5.8l.9-2.7h1.4l-1.8 5.3c-1.1 2.9-2.4 4.9-3.9 6-1.6 1.1-3 1.6-4.4 1.6-1.9 0-3.2-.6-4-1.9-.6-1.1-.8-2.4-.5-3.9.3-1.5.6-3 1-4.5l7-28.2zM338.4 503.8h-6.3l8.7-31.3c.5-1.7.6-2.8.5-3.5-.2-.7-.7-1-1.5-1-1.1 0-2 .6-2.9 1.7-.9 1.1-1.8 3-2.8 5.8l-.9 2.7h-1.4l1.8-5.3c1.1-3.1 2.4-5.1 4.1-6 1.7-1 3.2-1.5 4.7-1.5 1.9 0 3.2.5 3.7 1.6s.6 2.4.4 4c-.2 1.6-.6 3.1-.9 4.6l-7.2 28.2zm18.8-36.6c-1.1 0-2.3.5-3.5 1.6-1.2 1-2.4 2.6-3.6 4.5s-2.5 4.3-3.7 7.1-2.5 5.8-3.6 9.1c-1.2 3.4-2.3 7-3.5 10.9l1.8-9.3c1.6-4.8 3.1-8.8 4.5-12 1.4-3.3 2.8-5.9 4.1-7.9 1.4-2 2.8-3.5 4.2-4.4s3-1.3 4.6-1.3c1.4 0 2.4.4 3.2 1.2.8.8 1.1 1.8 1.1 3 0 1.5-.5 2.7-1.5 3.7s-2.2 1.5-3.6 1.5c-.8 0-1.5-.2-2.1-.7-.6-.5-.8-1.1-.8-1.9 0-1.2.3-2.1.9-2.9.6-.8 1.4-1.4 2.3-1.7-.1-.1-.2-.2-.3-.2-.2-.3-.3-.3-.5-.3zM369.5 503.8h-6.3l8.7-31.3c.5-1.7.6-2.8.5-3.5-.2-.7-.7-1-1.5-1-1.1 0-2 .6-2.9 1.7-.9 1.1-1.8 3-2.8 5.8l-.9 2.7h-1.4l1.8-5.3c1.1-3.1 2.4-5.1 4.1-6 1.7-1 3.2-1.5 4.7-1.5 1.9 0 3.2.5 3.7 1.6s.6 2.4.4 4c-.2 1.6-.6 3.1-.9 4.6l-7.2 28.2zm18.7-36.6c-1.1 0-2.3.5-3.5 1.6-1.2 1-2.4 2.6-3.6 4.5s-2.5 4.3-3.7 7.1-2.5 5.8-3.6 9.1c-1.2 3.4-2.3 7-3.5 10.9l1.8-9.3c1.6-4.8 3.1-8.8 4.5-12 1.4-3.3 2.8-5.9 4.1-7.9 1.4-2 2.8-3.5 4.2-4.4s3-1.3 4.6-1.3c1.4 0 2.4.4 3.2 1.2.8.8 1.1 1.8 1.1 3 0 1.5-.5 2.7-1.5 3.7s-2.2 1.5-3.6 1.5c-.8 0-1.5-.2-2.1-.7-.6-.5-.8-1.1-.8-1.9 0-1.2.3-2.1.9-2.9.6-.8 1.4-1.4 2.3-1.7-.1-.1-.2-.2-.3-.2-.1-.3-.3-.3-.5-.3zM396.4 487.3c2.7-.9 5.2-1.8 7.4-2.7 2.2-.9 4-1.9 5.3-2.9 1.7-1.4 3.1-3.1 4.2-5.1 1-2 1.5-4.2 1.5-6.6 0-1.4-.1-2.3-.3-2.7-.2-.4-.5-.6-.9-.6-1.5 0-3.2.8-5 2.4-1.8 1.6-3.5 3.8-5.1 6.6-1.6 2.7-2.9 5.8-4 9.1-1 3.3-1.6 6.6-1.6 10 0 2.5.5 4.3 1.4 5.4.9 1.1 2.1 1.6 3.6 1.6 1.7 0 3.6-.5 5.5-1.6s3.8-3 5.7-5.7l1.2.6c-.9 1.6-2.1 3.2-3.6 4.7s-3.2 2.7-5.1 3.7c-1.9.9-3.9 1.4-5.9 1.4-3 0-5.3-.9-7-2.6-1.7-1.7-2.6-4.3-2.6-7.7 0-2.1.4-4.4 1.2-7 .8-2.6 1.9-5.2 3.3-7.8 1.4-2.6 3.1-5 5.1-7.2 2-2.2 4.2-3.9 6.6-5.2s5-2 7.8-2c1.5 0 2.8.4 3.8 1.2 1 .8 1.6 2 1.6 3.6 0 1.9-.6 3.8-1.7 5.4-1.1 1.7-2.6 3.2-4.5 4.6-1.9 1.4-3.9 2.6-6.1 3.7-2.2 1.1-4.3 2-6.4 2.8-2.1.8-3.9 1.4-5.5 1.9l.1-1.3zM430.9 499.8c0 2.5-.9 5-2.8 7.5s-4.5 4.6-7.9 6.2l-.4-1c2.3-1.4 4.1-2.9 5.5-4.6 1.4-1.7 2.1-3.3 2.3-5-.6.5-1.2.9-1.8 1.3-.6.4-1.3.5-2 .5-1.8 0-2.8-.8-2.8-2.5 0-1.1.3-2.1 1-3.1s1.5-1.9 2.5-2.6c1-.7 2.1-1.1 3.2-1.1s1.9.4 2.4 1.3.8 2 .8 3.1zM462.2 487.4c0-3.2.5-6.5 1.4-9.9.9-3.4 2.3-6.7 4-9.8 1.7-3.1 3.9-5.9 6.4-8.4s5.3-4.4 8.4-5.9 6.5-2.2 10.2-2.2c5.4 0 9.6 1.5 12.6 4.6 3 3 4.6 7.4 4.6 13 0 3.2-.5 6.5-1.4 9.9s-2.3 6.6-4 9.7c-1.7 3.1-3.9 5.9-6.4 8.4-2.5 2.5-5.3 4.4-8.5 5.9s-6.5 2.2-10.2 2.2c-5.4 0-9.6-1.5-12.6-4.6-3-3-4.5-7.3-4.5-12.9zm29.8-34.8c-2.8 0-5.5 1-8.2 3.1s-5 4.8-7.1 8.2c-2.1 3.4-3.7 7.3-5 11.5-1.2 4.2-1.8 8.6-1.8 12.9 0 4.8.9 8.5 2.8 11.2 1.9 2.7 4.3 4 7.2 4 2.8 0 5.5-1 8.2-3.1s5-4.8 7.1-8.2c2.1-3.4 3.7-7.3 5-11.5 1.2-4.2 1.8-8.6 1.8-12.9 0-4.8-.9-8.5-2.8-11.2-1.9-2.7-4.3-4-7.2-4zM517.1 503.8h-6.3l14.4-48.6c.5-1.7.4-2.9-.2-3.6-.6-.8-2.1-1.2-4.5-1.2l.4-1.5c2.7 0 5.1-.3 7.2-.8 2.1-.5 4.1-1.2 5.9-2.1l-16.9 57.8zm2-10.7c1.8-5.1 3.6-9.4 5.3-13 1.7-3.5 3.3-6.4 5-8.6 1.7-2.2 3.4-3.7 5.1-4.7 1.7-1 3.6-1.5 5.5-1.5 2.3 0 3.8.5 4.7 1.6s1.2 2.5 1.1 4.2c-.1 1.7-.4 3.4-1 5.2l-7.1 21.3c-.4 1.3-.6 2.3-.5 3.2 0 .9.6 1.3 1.7 1.3.9 0 1.8-.5 2.7-1.5.9-1 1.9-3 2.9-5.9l.9-2.7h1.4l-1.8 5.3c-1.1 3.1-2.4 5.1-4.1 6-1.7 1-3.2 1.5-4.7 1.5-1.9 0-3.3-.4-4.1-1.3-.8-.9-1.1-2.1-1-3.6.1-1.6.5-3.3 1.1-5.2l6.9-20.8c.2-.7.5-1.6.7-2.6.2-1 .2-1.8-.1-2.5-.3-.7-1-1.1-2.1-1.1-1.6 0-3.2.8-5 2.5-1.7 1.7-3.5 4.1-5.3 7.2-1.8 3.1-3.5 6.7-5.2 11s-3.2 8.9-4.6 14l1.6-9.3zM562 472.6c1-3 .7-4.5-1-4.5-1.1 0-2.1.6-3 1.8-.9 1.2-1.8 3.1-2.8 5.6l-1 2.7h-1.4l1.9-5.3c1.1-3.1 2.5-5.1 4.2-6 1.7-1 3.3-1.5 4.8-1.5 2.1 0 3.5.5 4.1 1.6.7 1.1.9 2.4.7 4s-.6 3.1-1.1 4.6l-7.8 22.1c-.5 1.4-.6 2.5-.5 3.3.2.8.7 1.2 1.6 1.2 1 0 1.9-.5 2.8-1.6.9-1.1 1.8-3 2.9-5.8l1-2.7h1.4l-1.9 5.3c-1 2.8-2.3 4.8-4 5.9-1.6 1.1-3.3 1.6-5 1.6-2.1 0-3.5-.5-4.2-1.5-.7-1-1-2.2-.8-3.8.2-1.6.6-3.2 1.2-5l7.9-22zm2.2-19.5c.2-1.3.9-2.4 1.9-3.3 1-.9 2.2-1.4 3.4-1.4 1.3 0 2.2.5 3 1.4.7.9.9 2 .7 3.3-.2 1.3-.9 2.4-1.9 3.3-1 .9-2.2 1.4-3.5 1.4-1.2 0-2.2-.5-2.9-1.4-.7-.9-.9-2-.7-3.3zM574 493.4c0-2.7.5-5.6 1.4-8.9.9-3.2 2.3-6.3 4-9.2 1.8-2.9 4-5.3 6.6-7.2 2.6-1.9 5.6-2.8 9-2.8 3 0 5.4.9 7.2 2.8 1.8 1.9 2.7 4.7 2.7 8.6 0 2.7-.5 5.6-1.4 8.9-.9 3.2-2.3 6.3-4 9.2-1.8 2.9-4 5.3-6.6 7.2s-5.6 2.8-9 2.8c-3 0-5.4-.9-7.2-2.8-1.8-1.9-2.7-4.7-2.7-8.6zm20.6-26.6c-1.6 0-3 .6-4.5 1.9-1.4 1.2-2.7 2.9-3.9 5-1.2 2.1-2.2 4.5-3.1 7.1-.9 2.6-1.6 5.3-2.1 8.2-.5 2.8-.7 5.5-.7 8.1 0 2.2.4 3.8 1.1 4.8.7 1 1.7 1.5 3.1 1.5 1.6 0 3-.6 4.5-1.9 1.4-1.2 2.8-2.9 4-5 1.2-2.1 2.3-4.5 3.1-7.1.9-2.6 1.6-5.3 2-8.1.5-2.8.7-5.5.7-8.1 0-2.2-.3-3.8-1-4.8-.7-1.1-1.8-1.6-3.2-1.6z"/></g><path fill="none" stroke="currentColor" stroke-width="4" stroke-miterlimit="10" d="M13.3 383.7h755M13.3 397.7h755"/></svg>