<svg viewBox="0 0 1728 1296" xmlns="http://www.w3.org/2000/svg"><g clip-rule="evenodd" fill-rule="evenodd" fill="currentColor"><path d="m866 75.8c174.7 0 329.9 83.1 428.4 212l16.5 1.9c-100.3-137-262.2-226-445-226-182.3 0-344 88.6-444.3 225.1l14.2 1.3c98.5-130.2 254.6-214.3 430.2-214.3zm473.3 821.9c23.7-39.6 42.6-82.5 55.8-127.7l-18.1 17.2c-13.8 40.9-32.3 79.7-55 115.5zm22.2-495.2c11.6 27 21 55.1 28.1 84.1l15.8 15c-7.1-34.2-17.4-67.2-30.6-98.7z"/><path d="m1157.1 513.6c15.3-8.2 44-14.3 73.6-14.3 60.3 0 130.9 27.6 130.9 128.9 0 118.7-101.2 137.1-136 137.1-65.9 0-97.1-23.5-97.1-23.5 24.5 28.6 71.6 46 120.6 46 79.7 0 165.6-46 165.6-158.6 0-112.5-85.9-154.5-164.6-154.5-25.6 0-50.1 4.1-70.5 12.3v-124.8h208.6l22.5 10.2-15.3-48.1h-238.2v189.3zm-150.1-5.1c30.7-16.4 54.2-46 54.2-88 0-63.4-40.9-102.3-104.3-102.3-67.5 0-105.3 52.2-105.3 103.3 0 33.8 16.4 68.5 54.2 86.9-56.2 19.4-97.1 70.6-97.1 134 0 81.8 66.4 147.3 148.2 147.3 80.8 0 147.2-65.5 147.2-147.3 0-63.3-40.9-115.5-97.1-133.9zm-107.3-94.1c0-39.9 17.4-78.8 55.2-78.8 38.8 0 58.3 51.2 58.3 84.9 0 26.6-6.1 75.7-51.1 79.8h-8.2c-35.8-4.1-54.2-46-54.2-85.9zm62.3 355.9c-73.6 0-100.2-74.7-100.2-127.9s33.7-122.8 92-122.8c67.5 0 97.1 69.6 97.1 122.8.1 53.3-29.6 127.9-88.9 127.9zm-333.8 19c-.5 0-1.1.1-1.6.2 0-.1.6-.1 1.6-.2zm-274.8-17.9-13.3 13.3h76.7l-12.3-13.3v-434.8l12.3-13.3h-63.4l-24.6 43v16.3l24.6-23.5z"/><path d="m1474.8 818.4c-2.1-3.1-3.1-2.6-4.7-.5 10.4 18.2 5.2 37.4-6.2 52.4-55 64.4-212.2 82.5-308.6 115.2 5.2-34.3.5-70.6-16.1-92.4-5.7-5.7-9.9-7.8-12.4-.5-3.6 9.2-10.2 23.6-17.4 35.9-21 34.7-45.3 72.9-66.1 67.9-18.2-3.1-20.7-38.9-14-67.5 4.7-11.4-2.1-22.8-11.9-11.4-12.4 13-33.7 56.6-43.1 63.3-11.9 7.3 28.5-88.2-.5-92.9-17.6-3.6-46.7 40.5-74.2 81.5 8.8-20.8 17.1-37.9 25.9-56.6 5.7-11.4-7.8-22.8-15.6-5.2-3.9 8.9-8.6 19.7-13.3 31.3-28.9 47.6-85 133.5-119.5 108.4-30.1-24.9 31.1-128.2 40.5-146.9 2.6-4.7 6.7-15.1-3.1-17.1-11.9-2.6-27-8.3-34.2-17.6 4.7-8.8 7.8-18.2 8.8-25.4 1.6-7.8-.5-10.9-4.2-10.9-14 0-25.9 27-14 43.1-4.9 9.7-17.5 32.2-29.7 52.5-.5.3-1 .7-1.4 1.4-21.3 35.3-55.5 91.3-76.8 86.2-24.9-6.2-.5-74.7 15-99.6 6.7-10.9-6.7-22.3-15.6-5.2-2.6 4.2-4.7 8.8-7.3 14.5-3.1-10.4-14-16.6-25.4-13.5-13.8 3-25.6 16.7-32.2 32.1-23.6 32.8-53.2 62.4-84 80.6-6.2 0-18.2 1.6-22.3 3.6 18.7-55.5 53.4-136 79.9-184.8 48.8-74.2 96.5-147.4 109.4-173.9 13.5-27.5 2.6-33.7-10.9-22.8-12.6 9.9-42.5 58.9-76.6 122.8-52.4-16.3-72.1-78-72.1-123.8 0-53.2 33.7-122.8 92-122.8 67.5 0 96.9 69.6 97.1 122.8.6 131.7-70.5 145.4-81.9 146.8 75.2-6.2 135.1-69.1 135.1-146.8 0-63.4-40.9-115.6-97.1-134 30.7-16.4 54.2-46 54.2-88 0-63.4-40.9-102.3-104.3-102.3-67.5 0-105.3 52.2-105.3 103.3 0 33.8 16.4 68.5 54.2 86.9-56.2 19.4-97.1 70.6-97.1 134 0 70.3 49.1 128.5 114.8 143.5-8.9 17-18 34.9-27.1 53.1-25.5 27.3-67.3 68.5-113.3 109-30-38.1-55-80.4-73.9-125.8l-12.9.5c19.6 48.2 45.9 93 77.6 133.3-71.6 61.9-151.4 119.7-195.5 119.7-21.8.5-37.9-7.8-45.6-27.5-2.6-.5-3.6.5-2.1 4.2 7.3 19.2 22.3 28 42.5 28.5 75.7 2.1 241.7-145.3 314.9-224.7-29.6 59.7-57.1 123-76.8 174.9-6.2 3.1-12.5 6.7-13 11.4 0 4.2 2.6 6.7 6.7 6.2-14 40-55.5 186.8-22.3 206.1 48.2 28 149.9-210.7 82.5-231.5 21.2-14.7 45.8-38.3 68.5-67.9-.7 3.5-1.1 7-1.1 10.3 0 13 7.8 20.2 15 20.8 10.9.5 27-18.2 38.4-33.7-7.8 30.1-7.8 61.8 17.6 65.4 26 2.6 55.5-48.6 78.7-85.3.6-.4 1.2-1 1.7-1.9 13-22.3 23.9-41 31.1-55 8.3 8.3 21.8 14 30.6 16.1-16.6 30.1-70 129.2-33.7 158.8 36 26.8 85.2-39.5 115.2-86.3-5.9 15.7-11.2 31.3-14.5 44.3 0 10.9 8.8 11.4 11.9 3.6 18.2-37.9 71.6-118.8 84-116.8 8.8 1-12.5 57.6-7.3 80.5 1 9.9 8.8 17.1 17.6 7.3 10.4-11.4 33.2-52.4 37.3-57.1-8.8 35.8.5 74.7 27.5 75.8 26.4 2.6 47.2-34.2 70.5-71.1 6.2-11.9 11.9-23.4 15.6-29.6 8.8 13 18.2 54 14.5 88.2-19.7 7.3-64.3 25.4-64.3 49.3 2.1 16.6 25.4 13.5 36.3 8.3 20.2-9.3 35.3-33.7 38.4-55.5 36.4-12.4 82.4-22.8 128.4-34.6-98.8 120.4-248.7 197.2-416.6 197.2-104.8 0-202.7-30-285.5-81.8l5.7 17.7c82 48.4 177.6 76.2 279.8 76.2 177.5 0 335.4-84 436.2-214.5 70.6-18.9 138.1-42.1 167.9-81.7 14.4-19.3 11.8-39.6 5.1-52zm-916-404c0-39.9 17.4-78.8 55.2-78.8 38.9 0 58.3 51.2 58.3 84.9 0 26.6-6.1 75.7-51.1 79.8h-8.2c-35.8-4.1-54.2-46-54.2-85.9zm-112.7 834.7c-23.9-11.9 34.2-194.6 38.4-204 18.7-8.8 22.8-11.4 32.7-17.1 63.3 6.3-30.6 241.4-71.1 221.1zm202.9-308.3c-10.9 16.6-31.1 41.5-39.9 39.4-16.6-2.1 11.9-60.7 32.2-62.8 5.7-.5 10.4 3.1 11.9 11.4-1.1 4.3-4.2 12-4.2 12zm464.2 99.7c-8.3 5.2-25.9 10.4-28.5-2.1 0-19.2 44.6-37.9 58.1-43.1-4.2 19.8-15.1 36.4-29.6 45.2zm-24.4-830.9c-6.8-3.5-15.3 1.1-20.6 11.7-5.5 10.8-4 19.4 2.9 23 6.8 3.4 15.3-1.1 20.6-11.7 5.5-10.8 4.1-19.4-2.9-23zm-1.9 20.8c-5.4 10.7-10.6 15.4-15.2 13.1-4.4-2.2-4.4-9.1 1.2-20 5.4-10.7 10.6-15.4 15.2-13.1 4.4 2.2 4.4 9-1.2 20zm-59.4-46.8c-2.9-1-6.2-1.2-9.1.4-1.7 1-2.7 2.2-3.1 3.2-.5 1.4 0 3.1 1.7 3.7 1.5.5 3.1-.1 3.6-1.7s-.5-2.9-2-3.6c1.6-2 4.5-2.3 6.9-1.5 3.5 1.2 5.2 4.6 3.4 9.8-3.4 9.9-16.4 17.3-23.4 21.3l-.3 1c.9.3 1.7.5 2.6.9 1.8.6 3.8 1.4 6.7 2.4l10.7 3.7c.5-2.2 1.1-4.4 1.6-5.8.3-1 .8-2.1 1.1-2.8l-1.1-.4c-1.6 3.5-3.2 4.1-5.3 3.4l-11.2-3.9c11.1-8.1 21.3-11.8 23.7-18.9 1.9-5.2-1.3-9.4-6.5-11.2zm-63.5-16.9c-7.5-1.4-14.4 5.3-16.6 16.9-2.3 11.9 1.5 19.8 9.2 21.3 7.4 1.4 14.3-5.3 16.6-16.9 2.2-11.9-1.6-19.8-9.2-21.3zm3.9 20.5c-2.3 11.8-5.9 17.8-11 16.8-4.8-.9-6.7-7.5-4.4-19.6 2.3-11.8 5.9-17.8 11-16.8 4.9.9 6.8 7.5 4.4 19.6zm-70.1-28.5c-3.1-.2-6.3.6-8.6 2.9-1.3 1.4-2 2.8-2.1 3.9-.1 1.5.8 3 2.7 3.1 1.6.1 2.9-1 3-2.6.1-1.7-1.3-2.6-2.9-2.9 1-2.3 3.7-3.4 6.2-3.3 3.7.2 6.3 3 6 8.5-.5 10.4-11 21.2-16.6 26.9l-.1 1.1c.9 0 1.8 0 2.8.1 1.9.1 4 .3 7.1.4l11.3.6c-.1-2.3-.1-4.6-.1-6 0-1 .2-2.2.3-3l-1.2-.1c-.6 3.8-1.9 4.8-4.1 4.7l-11.8-.6c8.4-10.9 17.2-17.3 17.6-24.7.2-5.5-3.9-8.7-9.5-9zm-53.4 32.5c-1.8.1-3.3 1.7-3.2 3.6.1 1.8 1.7 3.3 3.6 3.2s3.3-1.8 3.2-3.6c-.1-1.9-1.7-3.3-3.6-3.2zm-43.3-27.1c-4.3.9-10.3 2.1-14.6 2.9s-10.3 1.9-14.7 2.6c.8 2.6 1.4 5.3 1.6 6.6.3 1.7.5 3.2.6 4.3l1.2-.2c-.6-7.4-.3-10 6.2-11.2l2.8-.5 5.5 29.5c.8 4.2 0 5-4.3 6l.2 1c1.6-.4 4.5-1 7.7-1.6 2.8-.5 5.8-1 7.7-1.3l-.2-1c-4.4.7-5.4.2-6.2-4l-5.5-29.5 2.8-.5c6.5-1.2 7.7 1.1 9.8 8.2l1.2-.2c-.3-1.1-.6-2.6-1-4.2-.2-1.4-.6-4.2-.8-6.9zm-72.8 34.6c-5.5-1.3-10-1.8-11.5-6.3-1.2-3.4.6-6.7 4.1-7.9 5.5-1.9 9.5 2.2 11.5 6.8l1.1-.4c-2.1-6.3-2.8-8.5-3.2-10.3l-1.1.4c.3 1.5.3 2.4-.4 2.6-.5.2-1 .1-1.9-.1-1.7-.4-3.4-.9-6.7.2-4.9 1.7-8.5 6-6.4 11.9 1.9 5.6 7 6.9 12.7 8.2 5.6 1.2 9.5 2.4 10.9 6.5 1.6 4.7-1 7.8-4.2 8.9-6.4 2.2-10.5-2.3-13-8.2l-1.1.4c2.4 7.1 3.3 10 3.9 12.1l1.1-.4c-.3-1.5-.3-2.4.3-2.6.4-.1 1-.1 2 .1 1.7.4 3.9.7 7.5-.5 5.8-2 9.5-6.8 7.4-13.1-2-5.5-6.7-6.8-13-8.3zm-45.2 29.4-1.1.5c2.5 6.6 2.4 9.3-3.5 12.3l-3.4 1.8c-3.2 1.6-4.1 1.5-5.8-2l-5.8-11.3 3.1-1.6c4.1-2.1 5.8 1.1 7.7 3.9l1.1-.5c-2.1-3.5-2.9-5-3.7-6.5-.4-.7-.7-1.4-1.2-2.2-.6-1.1-1.2-2.4-2.1-4.5l-1.1.5c.8 2.4 2.9 6.3-1.2 8.4l-3.1 1.6-5.7-11.1c-1.7-3.4-1.4-4.2 1.8-5.8l3.9-2c5-2.5 6.6-1.1 10.1 4.2l1.1-.5c-.5-.7-1-1.7-1.6-2.9-.5-1.1-1.6-3.4-2.5-5.7-2.8 1.6-6.9 3.7-9.8 5.1-2.8 1.4-9 4.6-13.7 6.8l.5.9c3.3-1.5 4.1-1.3 5.9 2.1l11.9 23.3c1.7 3.4 1.4 4.2-1.8 6l.5.9c4.5-2.5 10.7-5.7 13.6-7.1 3.1-1.6 7.6-3.9 10.8-5.4-1.4-2.3-2.8-4.7-3.4-5.9s-1.2-2.4-1.5-3.3z"/></g></svg>