<svg width="24" height="24" xmlns="http://www.w3.org/2000/svg" fill="currentColor"><path d="M12 24a4.184 4.184 0 01-3.023-1.281 4.245 4.245 0 01-.876-1.335 4.226 4.226 0 01-4.587-.899 4.179 4.179 0 01-1.231-3.021 4.212 4.212 0 01.319-1.574A4.158 4.158 0 010 12a4.214 4.214 0 012.601-3.9 4.16 4.16 0 01.913-4.585c1.181-1.18 3.078-1.542 4.591-.908.203-.488.498-.941.875-1.328A4.177 4.177 0 0112 0a4.157 4.157 0 013.891 2.606c1.528-.634 3.404-.281 4.594.909 1.259 1.257 1.56 3.035.904 4.581A4.214 4.214 0 0124 12a4.16 4.16 0 01-2.606 3.892 4.157 4.157 0 01-.909 4.593c-1.183 1.182-3.083 1.541-4.593.908A4.16 4.16 0 0112 24zm-5.26-9.792L4.947 15.93a2.209 2.209 0 00-.018 3.141c.839.84 2.234.852 3.17-.048l1.661-1.692.031 2.443C9.792 20.915 10.718 22 12 22a2.21 2.21 0 002.208-2.255v-2.414l1.707 1.707c.872.869 2.327.862 3.156.033a2.209 2.209 0 00-.033-3.156l-1.706-1.707h2.413A2.21 2.21 0 0022 12c0-1.198-.992-2.21-2.167-2.21h-2.347l1.537-1.69c1.035-1.079.808-2.412.048-3.171-.839-.838-2.335-.821-3.142.019l-1.721 1.793V4.255a2.21 2.21 0 10-4.417-.028l-.008 2.514-1.698-1.779c-.87-.869-2.327-.861-3.157-.033a2.21 2.21 0 00.034 3.156l1.779 1.778-2.514-.072h-.002A2.23 2.23 0 002 12c0 1.085.843 2.208 2.255 2.208H6.74zM12 9a3.001 3.001 0 010 6 3.001 3.001 0 010-6z"/></svg>