<svg xmlns="http://www.w3.org/2000/svg" viewBox="36 504.8 1685.8 283.5"><path fill="currentColor" d="M650.3 509.8c-1 11.6-1.7 22.8-2.1 33.6s-.6 19.2-.6 25.1c0 5.7.1 11.1.4 16.2.3 5.1.5 9.5.8 13.1h-8.9c-3.3-20.1-8-35.8-13.9-47.2-5.9-11.4-13.2-19.6-21.8-24.5-8.6-4.9-18.8-7.3-30.7-7.3h-12.7c-7.5 0-13.1.6-17 1.9-3.9 1.3-6.4 3.9-7.7 7.7-1.3 3.9-1.9 9.8-1.9 17.7v193.6c0 10 1 17.5 3.1 22.4 2.1 4.9 6 8.1 12 9.6 5.9 1.5 14.7 2.4 26.2 2.7v8.5c-8-.3-18.3-.5-30.9-.8-12.6-.3-25.8-.4-39.7-.4-11.1 0-21.9.1-32.4.4-10.5.3-20.1.5-28.5.8v-7.7c8.2-.5 14.4-1.5 18.5-3.1 4.1-1.5 6.9-4.6 8.3-9.3 1.4-4.6 2.1-11.6 2.1-20.8V550.7c0-9.5-.7-16.5-2.1-21-1.4-4.5-4.2-7.6-8.5-9.3-4.2-1.7-10.4-2.6-18.3-2.9v-7.7c13.9.3 28.9.5 45.1.8 16.2.3 31.5.4 45.9.4h34.7c11.8 0 25.3-.1 40.3-.2 15.1-.2 28.5-.5 40.3-1zm-57.4 133.5v7.7h-70.2v-7.7h70.2zm9.6-51c-1 14.7-1.5 25.8-1.4 33.6.1 7.7.2 14.8.2 21.2 0 6.4.1 13.5.4 21.2.3 7.7.9 18.9 1.9 33.6h-8.9c-1.5-9-4-17.4-7.3-25.1-3.3-7.7-8.2-13.9-14.7-18.7-6.4-4.8-14.8-7.1-25.1-7.1v-7.7c10.3 0 18.5-2.8 24.7-8.5 6.2-5.7 10.9-12.4 14.1-20.2 3.2-7.8 5.6-15.2 7.1-22.2h9zM780.3 509L874 750.5c3.6 9.3 7.6 15.6 12.2 19.1 4.5 3.5 8.5 5.3 12.2 5.6v7.7c-7.7-.5-16.8-.8-27.2-1-10.4-.1-20.9-.2-31.4-.2-11.8 0-23 .1-33.6.2-10.5.1-18.9.5-25.1 1v-7.7c13.1-.5 21.4-2.8 24.9-6.7 3.5-4 2.6-12.5-2.5-25.6l-65.6-179.4 6.9-10-58.6 152.7c-7.2 19-10.7 33.4-10.6 43.2.1 9.8 3.3 16.4 9.4 19.9 6.2 3.5 14.4 5.5 24.7 6v7.7c-8.5-.5-16.6-.8-24.3-1-7.7-.1-15.6-.2-23.5-.2-5.7 0-11 .1-16 .2s-9.4.5-13.3 1v-7.7c5.4-1 10.9-4.5 16.6-10.4 5.7-5.9 11.2-15.9 16.6-30.1L753.7 509c4.1.3 8.5.4 13.3.4 4.8 0 9.2-.1 13.3-.4zm27 162.8v7.7H692.4l3.9-7.7h111zM901 509.8c6.4.3 15.1.5 26 .8 10.9.3 21.8.4 32.6.4 12.3 0 24.3-.1 35.9-.4 11.6-.3 19.8-.4 24.7-.4 35.7 0 62.5 5.9 80.2 17.5 17.7 11.7 26.6 28.2 26.6 49.6 0 8.7-1.8 17.5-5.4 26.4-3.6 8.9-9.7 17.1-18.3 24.7-8.6 7.6-20.4 13.6-35.3 18.1-14.9 4.5-33.7 6.8-56.3 6.8h-37v-7.7h33.2c15.2 0 26.7-2.9 34.5-8.7 7.8-5.8 13.2-13.5 16.2-23.1 3-9.6 4.4-20.4 4.4-32.2 0-20.3-3.6-36.1-10.8-47.2-7.2-11.2-19.5-16.8-37-16.8-10 0-16.5 2.2-19.5 6.6-3 4.4-4.4 13.2-4.4 26.6V742c0 9.3.7 16.2 2.1 20.8 1.4 4.6 4.2 7.7 8.3 9.3 4.1 1.5 10.3 2.6 18.5 3.1v7.7c-6.9-.5-15.7-.8-26.2-1-10.5-.1-21.2-.2-32-.2-12.3 0-24 .1-34.9.2-10.9.1-19.6.5-26 1v-7.7c8.2-.5 14.4-1.5 18.5-3.1 4.1-1.5 6.9-4.6 8.3-9.3 1.4-4.6 2.1-11.6 2.1-20.8V550.7c0-9.5-.7-16.5-2.1-21-1.4-4.5-4.2-7.6-8.5-9.3-4.2-1.7-10.4-2.6-18.3-2.9v-7.7zm72.9 136.9c11.1.3 20.6.8 28.7 1.5 8.1.8 15.2 1.5 21.4 2.1 6.2.6 11.7 1.1 16.6 1.4 23.4 2.1 40.7 7.1 51.9 15 11.2 8 18.4 19.9 21.8 35.9l8.9 39.7c2.3 10.3 4.8 17.5 7.3 21.6 2.6 4.1 6.3 6.2 11.2 6.2 3.3-.3 6.1-1.1 8.3-2.5 2.2-1.4 4.6-3.5 7.1-6.4l5.4 4.6c-6.9 8-14.4 13.7-22.4 17.2-8 3.5-17.6 5.2-28.9 5.2-13.9 0-25.3-3-34.3-8.9-9-5.9-14.9-16.8-17.7-32.8l-6.9-38.6c-1.8-10.8-4-20.3-6.6-28.3-2.6-8.1-6.1-14.5-10.6-19.3-4.5-4.8-10.7-7.1-18.7-7.1h-41.7l-.8-6.5zM1499.7 509.8v7.7c-8.2.3-14.4 1.2-18.5 2.9s-6.9 4.8-8.3 9.3c-1.4 4.5-2.1 11.5-2.1 21V742c0 9.3.7 16.2 2.1 20.8 1.4 4.6 4.2 7.7 8.3 9.3 4.1 1.5 10.3 2.6 18.5 3.1v7.7c-7.2-.5-16.3-.8-27.2-1-10.9-.1-22.1-.2-33.4-.2-12.3 0-23.9.1-34.7.2-10.8.1-19.5.5-26.2 1v-7.7c8.7-.5 15.4-1.5 19.9-3.1 4.5-1.5 7.5-4.6 9.1-9.3 1.5-4.6 2.3-11.6 2.3-20.8V533.3h2.7l-95.7 249.9h-6.2l-104.1-248.4v184.8c0 14.1.8 25 2.3 32.6 1.5 7.6 4.9 13 10.2 16.2 5.3 3.2 13.6 5.5 24.9 6.7v7.7c-4.9-.5-11.3-.8-19.3-1-8-.1-15.4-.2-22.4-.2-5.9 0-12 .1-18.1.2-6.2.1-11.3.5-15.4 1v-7.7c8.2-1.3 14.4-3.5 18.5-6.6 4.1-3.1 6.9-8.2 8.3-15.2 1.4-7.1 2.1-16.8 2.1-29.1V550.7c0-9.5-.7-16.5-2.1-21-1.4-4.5-4.2-7.6-8.5-9.3-4.2-1.7-10.4-2.6-18.3-2.9v-7.7c4.1.3 9.3.5 15.4.8 6.2.3 12.2.4 18.1.4 11.1 0 21.9-.1 32.6-.4 10.7-.3 20.1-.5 28.3-.8l81 195.6-9.6 8.9 77.5-203.3h27.4c11.3 0 22.4-.1 33.4-.4 10.9-.3 20-.5 27.2-.8zM1621.9 504.8c15.2 0 26.9 1.6 35.1 4.8 8.2 3.2 15.3 6.6 21.2 10.2 3.1 1.8 5.6 3.2 7.5 4.1 1.9.9 3.8 1.4 5.6 1.4 4.1 0 6.9-5.7 8.5-17h8.9c-.3 4.9-.6 10.7-1 17.5-.4 6.8-.6 15.8-.8 26.8-.1 11.1-.2 25.6-.2 43.6h-8.9c-1-13.4-4.1-26.4-9.3-39-5.1-12.6-12.4-22.9-21.8-31-9.4-8.1-20.9-12.1-34.5-12.1-12.3 0-22.5 3.5-30.5 10.4s-12 16.6-12 28.9c0 10.3 2.6 19.1 7.7 26.4 5.1 7.3 12.7 14.5 22.6 21.4 9.9 6.9 21.9 15.3 36.1 25.1 12.3 8 23.4 15.9 33.2 23.9 9.8 8 17.6 17 23.5 27 5.9 10 8.9 22 8.9 35.9 0 17-4.4 31-13.3 42-8.9 11.1-20.5 19.4-34.9 24.9-14.4 5.5-30.2 8.3-47.4 8.3-15.9 0-28.7-1.5-38.2-4.6-9.5-3.1-17.5-6.3-23.9-9.6-5.7-3.6-10-5.4-13.1-5.4-4.1 0-6.9 5.7-8.5 17h-8.9c.5-6.2.8-13.4 1-21.6.1-8.2.3-19 .4-32.2.1-13.2.2-30 .2-50.3h8.9c1 17 3.9 32.9 8.7 47.6 4.8 14.8 12.1 26.7 22 35.7 9.9 9 23.1 13.5 39.5 13.5 13.4 0 24.7-3.6 33.9-10.8 9.3-7.2 13.9-18 13.9-32.4 0-15.9-5.4-29.1-16.2-39.5-10.8-10.4-24.7-21.1-41.7-32.2-12.1-8-23.4-15.9-33.9-23.9-10.5-8-19-17.1-25.3-27.4-6.3-10.3-9.4-22.5-9.4-36.6 0-16.2 4-29.5 12.2-39.9 8.1-10.4 18.8-18.1 32-23.1 13.2-5.3 27.3-7.8 42.2-7.8z"/><path fill="currentColor" fill-rule="evenodd" clip-rule="evenodd" d="M256 570.7c9.9-5.3 17.6-14.9 17.6-28.5 0-20.6-13.3-33.2-33.8-33.2-21.9 0-34.2 16.9-34.2 33.5 0 10.9 5.3 22.2 17.6 28.2-18.2 6.3-31.5 22.9-31.5 43.5 0 26.5 21.6 47.8 48.1 47.8 26.2 0 47.7-21.2 47.7-47.8 0-20.6-13.3-37.5-31.5-43.5zm-34.8-30.5c0-12.9 5.6-25.5 17.9-25.5 12.6 0 18.9 16.6 18.9 27.5 0 8.6-2 24.6-16.6 25.9h-2.7c-11.6-1.3-17.5-14.9-17.5-27.9zm20.2 115.5c-23.9 0-32.5-24.2-32.5-41.5s10.9-39.8 29.8-39.8c21.9 0 31.5 22.6 31.5 39.8 0 17.3-9.6 41.5-28.8 41.5zM146.5 570.7c9.9-5.3 17.6-14.9 17.6-28.5 0-20.6-13.3-33.2-33.8-33.2-21.9 0-34.2 16.9-34.2 33.5 0 10.9 5.3 22.2 17.6 28.2-18.2 6.3-31.5 22.9-31.5 43.5 0 26.5 21.6 47.8 48.1 47.8 26.2 0 47.7-21.2 47.7-47.8 0-20.6-13.2-37.5-31.5-43.5zm-34.8-30.5c0-12.9 5.6-25.5 17.9-25.5 12.6 0 18.9 16.6 18.9 27.5 0 8.6-2 24.6-16.6 25.9h-2.7c-11.5-1.3-17.5-14.9-17.5-27.9zm20.2 115.5c-23.9 0-32.5-24.2-32.5-41.5s10.9-39.8 29.8-39.8c21.9 0 31.5 22.6 31.5 39.8.1 17.3-9.5 41.5-28.8 41.5zM44 656l-4.3 4.3h24.8l-3.9-4.3V515l3.9-4.3H44l-8 13.9v5.3l8-7.6V656zM304.7 572.4c5-2.7 14.3-4.6 23.9-4.6 19.6 0 42.4 9 42.4 41.8 0 38.5-32.8 44.5-44.1 44.5-21.4 0-31.5-7.6-31.5-7.6 8 9.3 23.2 14.9 39.1 14.9 25.9 0 53.7-14.9 53.7-51.4s-27.9-50.1-53.4-50.1c-8.3 0-16.2 1.3-22.9 4v-40.5h67.6l7.3 3.3-5-15.6h-77.3v61.3h.2z"/></svg>