<svg xmlns="http://www.w3.org/2000/svg" viewBox="0 0 290 58.1"><g fill="currentColor"><path d="M63.5.2c1.3.1 3.1.1 5.4.2 2.3.1 4.5.1 6.8.1 2.6 0 5.1 0 7.5-.1 2.4-.1 4.1-.1 5.1-.1 6.6 0 11.6 1.2 14.9 3.5 3.3 2.4 4.9 5.4 4.9 9.1 0 1.9-.6 3.8-1.7 5.7-1.1 1.9-2.9 3.6-5.2 5.1-2.4 1.5-5.4 2.6-9.2 3.3v.2c5 .4 9 1.3 12 2.7 2.9 1.4 5.1 3.2 6.3 5.2 1.3 2 1.9 4.1 1.9 6.3 0 5-2 8.9-5.9 11.6-3.9 2.7-9.4 4-16.3 4-1.3 0-3.1 0-5.6-.1-2.4-.1-5.3-.1-8.7-.1h-6.9c-2.3 0-4.1.1-5.4.2v-1.6c1.7-.1 3-.3 3.9-.6.9-.3 1.4-1 1.7-1.9.3-1 .4-2.4.4-4.3V8.7c0-2-.1-3.4-.4-4.4-.3-.9-.9-1.6-1.8-1.9-.9-.3-2.2-.5-3.8-.6V.2zm23.7 1.6c-2.1 0-3.4.5-4.1 1.4-.6.9-.9 2.8-.9 5.5v39.8c0 2.8.3 4.6 1 5.4.7.8 2.2 1.2 4.5 1.2 3.9 0 6.7-1.2 8.5-3.7C98 49 98.9 45.5 98.9 41c0-4.1-1-7.3-3.1-9.6-2.1-2.2-5.5-3.4-10.2-3.4h-6.8v-1.4h6.9c2.5 0 4.4-.6 5.8-1.8 1.3-1.2 2.3-2.8 2.8-4.8s.8-4.2.8-6.5c0-4-.6-6.9-1.8-9C92 2.8 90 1.8 87.2 1.8zM145.7 0l19.5 50.3c.7 1.9 1.6 3.3 2.5 4 .9.7 1.8 1.1 2.5 1.2V57c-1.6-.1-3.5-.2-5.7-.2H151c-2.2 0-3.9.1-5.2.2v-1.6c2.7-.1 4.5-.6 5.2-1.4.7-.8.5-2.6-.5-5.3l-13.7-37.3 1.4-2.1L126.1 41c-1.5 4-2.2 7-2.2 9s.7 3.4 2 4.1c1.3.7 3 1.1 5.1 1.2V57c-1.8-.1-3.5-.2-5.1-.2h-8.2c-1 0-2 .1-2.8.2v-1.6c1.1-.2 2.3-.9 3.5-2.2 1.2-1.2 2.3-3.3 3.5-6.3l18.3-47c.9.1 1.8.1 2.8.1 1 .1 1.9.1 2.7 0zm5.7 33.9v1.6h-23.9l.8-1.6h23.1zM176.8.2c1.3.1 3.1.1 5.4.2 2.3.1 4.5.1 6.8.1 2.6 0 5.1 0 7.5-.1 2.4-.1 4.1-.1 5.1-.1 7.4 0 13 1.2 16.7 3.7 3.7 2.4 5.5 5.9 5.5 10.3 0 1.8-.4 3.7-1.1 5.5-.8 1.8-2 3.6-3.8 5.1-1.8 1.6-4.2 2.8-7.3 3.8-3.1.9-7 1.4-11.7 1.4h-7.7v-1.6h6.9c3.2 0 5.6-.6 7.2-1.8 1.6-1.2 2.8-2.8 3.4-4.8.6-2 .9-4.2.9-6.7 0-4.2-.8-7.5-2.2-9.8-1.5-2.3-4.1-3.5-7.7-3.5-2.1 0-3.4.5-4.1 1.4-.6.9-.9 2.8-.9 5.5v39.8c0 1.9.1 3.4.4 4.3.3 1 .9 1.6 1.7 1.9.9.3 2.1.5 3.9.6V57c-1.4-.1-3.3-.2-5.5-.2h-14c-2.3 0-4.1.1-5.4.2v-1.6c1.7-.1 3-.3 3.9-.6.9-.3 1.4-1 1.7-1.9.3-1 .4-2.4.4-4.3V8.7c0-2-.1-3.4-.4-4.4-.3-.9-.9-1.6-1.8-1.9-.9-.3-2.2-.5-3.8-.6V.2zM192 28.7c2.3.1 4.3.2 6 .3 1.7.2 3.2.3 4.5.4 1.3.1 2.4.2 3.5.3 4.9.4 8.5 1.5 10.8 3.1 2.3 1.7 3.8 4.1 4.5 7.5l1.8 8.3c.5 2.1 1 3.6 1.5 4.5.5.9 1.3 1.3 2.3 1.3.7-.1 1.3-.2 1.7-.5.5-.3.9-.7 1.5-1.3l1.1 1c-1.4 1.7-3 2.9-4.7 3.6-1.7.7-3.7 1.1-6 1.1-2.9 0-5.3-.6-7.1-1.8-1.9-1.2-3.1-3.5-3.7-6.8l-1.4-8c-.4-2.2-.8-4.2-1.4-5.9-.5-1.7-1.3-3-2.2-4-.9-1-2.2-1.5-3.9-1.5h-8.7l-.1-1.6zM290 .2v1.6c-1.7.2-3 .7-3.9 1.3-.9.7-1.4 1.7-1.7 3.2-.3 1.4-.4 3.5-.4 6.1v44.8c-.6-.1-1.3-.1-2-.1s-1.4 0-2.1.1L245 13v30.8c0 2.9.2 5.2.5 6.8.3 1.6 1 2.7 2.1 3.4 1.1.7 2.8 1.1 5.2 1.4V57c-1-.1-2.4-.2-4-.2h-8.5c-1.3 0-2.4.1-3.2.2v-1.6c1.7-.3 3-.7 3.9-1.4.9-.6 1.4-1.7 1.7-3.2.3-1.5.4-3.5.4-6.1v-36c0-2-.1-3.4-.4-4.4-.3-.9-.9-1.6-1.8-1.9-.9-.3-2.2-.5-3.8-.6V.2c.9.1 1.9.1 3.2.2 1.3.1 2.5.1 3.8.1 1.3 0 2.5 0 3.7-.1 1.2-.1 2.2-.1 3.2-.2l31.1 38.3V13.3c0-2.9-.2-5.2-.5-6.8-.3-1.6-1-2.7-2.1-3.4-1.1-.7-2.8-1.2-5.2-1.4V.2c1 .1 2.4.1 4 .2 1.7.1 3.2.1 4.7.1 1.3 0 2.6 0 3.8-.1 1.2-.1 2.3-.2 3.2-.2z"/></g><g fill="currentColor"><path d="M25.3 5.2c-.9.6-1.7.9-2.7 1.1-.9.2-2 .3-3.3.3-1.5 0-3-.1-4.5-.3-1.4-.2-2.9-.5-4.2-.7-1.4-.2-2.8-.3-4.1-.3-.7 0-1.4 0-2.2.1-.8 0-1.3.2-1.7.4.2.3.4.6.5 1 .1.4.2.7.2 1.1 0 .5-.1.9-.4 1.3-.3.4-.8.6-1.4.6-.5 0-.9-.1-1.1-.4C.1 9 0 8.6 0 8.1s.1-.9.4-1.4c.3-.5.7-.9 1.4-1.3.6-.2 1.1-.4 1.7-.5s1.2-.2 1.7-.2h1.2c1.7-.1 3.2 0 4.6.3 1.4.2 2.8.4 4.2.7 1.4.2 2.9.3 4.4.3 1.2 0 2.2-.1 3.1-.3s1.7-.5 2.5-1l.1.5zM11 5.4c.4 0 .8.1 1.1.1.3 0 .6.1.9.1.3 0 .7.1 1.1.1L8.9 25.2c-.4 1.3-.4 2.2-.1 2.6.3.4 1.2.6 2.7.7l-.1.7c-.6 0-1.4-.1-2.3-.1H3.4c-.9 0-1.6 0-2.2.1l.1-.7c1 0 1.7-.2 2.3-.4s1-.5 1.3-1c.3-.5.6-1.1.8-1.9L11 5.4zm14-3.1c.6 0 1.1-.1 1.7-.1l1.5-.3-7.7 27.4h-3.1l7.6-27zm-3.6 21.8c.9-2.4 1.7-4.5 2.5-6.1.8-1.7 1.6-3 2.4-4.1.8-1 1.6-1.8 2.4-2.2.8-.5 1.7-.7 2.6-.7 1 0 1.8.2 2.2.7.4.5.6 1.1.6 1.9 0 .8-.2 1.7-.5 2.6l-3.3 10.1c-.2.4-.3.9-.3 1.4 0 .5.3.7.8.7.4 0 .9-.2 1.3-.7.4-.5.9-1.4 1.4-2.8l.4-1.3h.7l-.9 2.5c-.5 1.4-1.2 2.4-1.9 2.9-.8.5-1.5.7-2.2.7-1.4 0-2.2-.5-2.3-1.4-.2-.9 0-2.1.4-3.5l3.3-9.9c.1-.4.2-.8.3-1.3.1-.4.1-.8-.1-1.1-.1-.3-.5-.5-1-.5-1 0-2 .7-3.2 2.1-1.2 1.4-2.3 3.3-3.4 5.8s-2.1 5.3-3 8.5l.8-4.3zM39.1 21.4c1.3-.4 2.5-.9 3.5-1.3s1.9-.9 2.5-1.4c.8-.7 1.5-1.5 2-2.4.5-.9.7-2 .7-3.1 0-.7 0-1.1-.1-1.3-.1-.2-.2-.3-.4-.3-.7 0-1.5.4-2.3 1.2-.9.8-1.7 1.8-2.4 3.1-.8 1.3-1.4 2.7-1.9 4.3-.5 1.6-.7 3.1-.7 4.7 0 1.2.2 2 .7 2.5.4.5 1 .8 1.7.8.8 0 1.7-.3 2.6-.8.9-.5 1.8-1.4 2.7-2.7l.6.3c-.4.8-1 1.5-1.7 2.2-.9.8-1.7 1.4-2.6 1.8-.9.4-1.8.7-2.8.7-1.4 0-2.5-.4-3.3-1.2-.8-.8-1.2-2-1.2-3.6 0-1 .2-2.1.6-3.3.4-1.2.9-2.5 1.6-3.7.7-1.2 1.5-2.4 2.4-3.4.9-1 2-1.9 3.1-2.5 1.1-.6 2.4-.9 3.7-.9.7 0 1.3.2 1.8.6.5.4.7.9.7 1.7 0 .9-.3 1.8-.8 2.6s-1.3 1.5-2.1 2.2c-.9.7-1.8 1.2-2.9 1.7-1 .5-2 .9-3 1.3s-1.9.7-2.6.9l-.1-.7z"/></g></svg>