<svg xmlns="http://www.w3.org/2000/svg" xmlns:xlink="http://www.w3.org/1999/xlink" viewBox="0 0 1424.1 555"><defs><path id="a" d="M0 0h1424v555H0z"/></defs><clipPath id="b"><use xlink:href="#a" overflow="visible"/></clipPath><path clip-path="url(#b)" fill="#524440" d="M629.1 26c2.3 3.5 5.1 6.6 8.2 9.4 3.1 2.8 6.4 5.3 10.1 7.3 3.6 2 7.6 3.5 11.6 4.2 4.1.7 8.3.7 12.4.9l50.2 2.1 50.2 2.3 50.2 2.4 50.2 2.6 25.1 1.3 25.1 1.3c33.4 1.7 66.9 3.1 100.4 4.6 66.9 2.9 133.8 5.8 200.7 9l50.2 2.5 50.2 2.6 50.2 2.6 50.2 2.8v.2l-50.2-2-50.2-2.1-50.2-2.1-50.2-2.3c-66.9-3.1-133.8-6.5-200.7-10-33.4-1.7-66.9-3.5-100.3-5l-25.1-1.1-25.1-1-50.2-2.1-50.4-2.4-50.2-2.5-50.2-2.6c-4.2-.3-8.4-.3-12.6-1.1-4.2-.8-8.1-2.4-11.8-4.5-3.7-2.1-7-4.7-10-7.6-3-2.9-5.8-6.1-8-9.7h.2z"/><path clip-path="url(#b)" fill="#524440" d="M680.2 48.7l18.1 42.1 18 42.1 17.8 42.2 8.9 21.1 8.8 21.1c5.9 14.1 11.7 28.2 17.6 42.3l8.7 21.2.3.7.1.3.1.3c.2.4.5.8.8 1.1.6.7 1.2 1.4 1.9 2 1.4 1.1 3.1 2 4.9 2.2 1.8.3 3.8.2 5.7.3l5.7.3 91.4 5.6h.1l.1.1 91.5 59.1 45.7 29.6 45.7 29.7 45.6 29.8 45.5 29.9c30.3 20 60.7 39.9 90.9 60.1l-.1.2c-30.6-19.5-61.1-39.2-91.6-58.9l-45.8-29.5L1071 414l-45.6-29.8-45.6-29.9-91-59.9.2.1-45.7-3c-15.2-.9-30.5-1.8-45.7-2.6l-5.7-.3c-1.9-.1-3.8 0-5.8-.3s-3.9-1.2-5.4-2.4c-.8-.6-1.5-1.3-2.1-2.1l-.9-1.2c-.1-.1-.1-.2-.2-.4l-.1-.3-.3-.7-9-21.1c-6-14-12-28.1-17.9-42.2l-8.9-21.1-8.8-21.1-17.6-42.3-17.5-42.3L680 48.8l.2-.1z"/><path clip-path="url(#b)" fill="#524440" d="M1424 178.1l-22.8 13.3c-12.2 8.4-24.3 16.8-36.6 25.1l-18.3 12.5c-6.1 4.2-12.2 8.3-18.4 12.4-12.3 8.3-24.6 16.4-36.9 24.6l-18.5 12.3-18.4 12.4c-5.4 4.7-10.7 9.5-16 14.3l-15.9 14.4-42.2 49.8-42.4 49.6c-14.2 16.5-28.3 33-42.6 49.4-14.2 16.4-28.5 32.8-42.9 49.1v-.1l-8.2 14.9-.2-.1 7.8-15.1c14-16.7 28-33.3 42.1-49.9 14-16.6 28.2-33.1 42.4-49.6l42.6-49.4 42.8-49.2 16.1-14.2c5.3-4.8 10.7-9.5 16-14.3l18.3-12.5 18.3-12.6c12.2-8.4 24.3-16.8 36.6-25.1 6.1-4.2 12.2-8.3 18.4-12.4l18.4-12.4c12.3-8.3 24.6-16.4 36.9-24.6l23.2-12.7.4.1zM578.1 14.1l-30.2 27.3-30.3 27.2-30.4 27.1c-10.1 9-20.4 18-30.5 27l-.1.1h-.1l-47.7 23.9-23.8 12-23.8 12.1-23.8 12.2-23.7 12.3-47.4 24.5.1-.1c-9.4 6.6-19 12.9-28.9 18.9-4.9 3-9.9 5.8-15 8.5-2.6 1.3-5.1 2.6-7.8 3.8-2.6 1.2-5.3 2.3-8.1 3.3-2.8.9-5.6 1.7-8.7 1.8H137.7l-68.9-.3-34.4-.3-34.4-.3v-.2l34.4-.4 34.4-.3 68.9-.3H197.9c2.7-.1 5.4-.8 8.1-1.7 2.7-.9 5.3-2 7.9-3.2 2.6-1.2 5.2-2.4 7.7-3.8 5.1-2.6 10-5.5 15-8.4 9.8-5.9 19.5-12.1 28.9-18.6h.1l47.6-24 23.8-12 23.8-12.1 23.7-12.2 23.7-12.2 47.3-24.6-.2.1c10.2-9 20.3-18.1 30.5-27l30.6-26.9 30.7-26.8 30.8-26.7.2.3z"/><path clip-path="url(#b)" fill="#524440" d="M477.1 0c-.6 23.3-1.3 46.5-2.2 69.8l-1.4 34.9c-.5 11.6-1.1 23.3-1.6 34.9l-3.8 69.7c-.7 11.6-1.3 23.2-2 34.9l-.6 8.7c-.2 2.9-.4 5.8-.8 8.7-.1.4-.1.7-.2 1.1-.1.4-.3.8-.4 1.1-.3.7-.7 1.3-1 2-.8 1.3-1.6 2.5-2.5 3.6-1.8 2.3-3.7 4.5-4.9 7.1-.6 1.3-1 2.6-1 4-.1 1.4-.1 2.9-.1 4.3l-.3 8.7-.7 17.4-1.6 34.9c-1.1 23.2-2.2 46.5-3.5 69.7-2.4 46.5-5.1 93-8.2 139.4h-.2c1.8-46.5 4-93 6.3-139.5 1.1-23.2 2.4-46.5 3.7-69.7l1.9-34.9 1-17.4.5-8.7c.1-1.5.1-2.9.2-4.4.1-1.5.5-3 1.2-4.4 1.4-2.7 3.4-4.9 5.1-7.2.9-1.1 1.8-2.3 2.5-3.5.4-.6.7-1.2 1-1.9.2-.3.3-.6.4-.9.1-.3.1-.7.2-1 .8-5.7 1.1-11.6 1.6-17.3.8-11.6 1.5-23.2 2-34.9l.8-17.4.7-17.4 1.3-34.9 1.5-34.9 1.6-34.9c1.1-23.3 2.2-46.5 3.5-69.7zM1244.2 75.5c-.2 19.4-.8 38.8-1.8 58.2-.6 9.7-1.3 19.4-1.8 29.1-.5 9.7-.8 19.4-1 29.1-.2 9.7-.5 19.4-.9 29.1-.4 9.7-.7 19.4-1.1 29.1-.9 19.4-2 38.8-3.5 58.2h-.2c.2-19.4.8-38.8 1.6-58.2.4-9.7.9-19.4 1.4-29.1.5-9.7 1-19.4 1.7-29.1.6-9.7 1.1-19.4 1.5-29.1.3-9.7.5-19.4.8-29.1.7-19.4 1.7-38.8 3.3-58.2z"/><path clip-path="url(#b)" fill="#524440" d="M1239 181.9c4.9-1 9.8-1.6 14.7-2.1 4.9-.4 9.9-.7 14.9-.4 2.5.2 5 .5 7.4 1.1.6.2 1.2.3 1.8.5.6.2 1.2.4 1.8.7 1.1.5 2.2 1.1 3.3 1.7 4.4 2.3 8.7 4.8 12.8 7.6 4.1 2.8 8.1 5.9 11.5 9.6 1.7 1.8 3.3 3.8 4.8 5.9 1.4 2 2.8 4.1 4.1 6.2 5.4 8.3 10.7 16.6 15.6 25.2l-.2.1c-6-7.9-11.7-15.9-17.2-24.1-1.4-2.1-2.7-4.1-4.1-6.2-1.4-2-2.8-4-4.4-5.8-3.2-3.7-6.9-6.9-10.7-10-3.9-3-8-5.7-12.5-7.9-1.1-.5-2.2-1-3.4-1.5-.6-.3-1.1-.4-1.7-.6-.6-.2-1.2-.3-1.8-.4-2.4-.4-4.8-.5-7.3-.5-9.8-.1-19.6.5-29.5 1l.1-.1zM1222.1 318.9c10.6 8.2 21.3 16.4 31.9 24.6 10.6 8.3 21.2 16.5 31.8 24.8l-.5-.2c9.7.2 19.3.6 29 .9 9.7.4 19.3.9 29 1.6l7.2.6c2.4.3 4.8.5 7.3 1.1.3.1.6.2 1 .3.2.1.4.2.6.4.1.1.3.4.3.8v5.6l-.1 7.3-.2 29-.1 29v29c0 19.3.2 38.7.3 58v.6h-.6l-52.5 2.8-52.5 2.6-1.5.1.5-1.5 15.7-50 15.9-49.9v-.2l17.1-33.3 17.2-33.2.2.1-16.4 33.6-16.6 33.5v-.1l-15.4 50.1-15.6 50-1.1-1.4 52.5-2.4 52.5-2.2-.6.6c.1-19.3.3-38.7.3-58v-29l-.1-29-.2-29-.1-7.3V373.6c0 .2.1.4.1.4.1 0 0 0-.1-.1-.2-.1-.5-.2-.7-.2-2.2-.5-4.7-.8-7.1-1l-7.2-.6c-9.6-.7-19.3-1.1-28.9-1.6-9.7-.4-19.3-.8-29-1.1h-.3l-.2-.2c-10.5-8.3-21-16.8-31.5-25.2-10.5-8.4-20.9-16.9-31.4-25.4l.1.3z"/><path clip-path="url(#b)" fill="#524440" d="M1254.1 344.3c-8.1 10.5-16.6 20.6-25.3 30.6-4.4 4.9-8.9 9.7-13.3 14.7s-8.6 10.1-12.8 15.2l-12.6 15.3c-4.3 5.1-8.5 10.1-12.8 15.1-8.7 10-17.5 19.8-26.6 29.4l-.2-.1c8.1-10.4 16.6-20.6 25.1-30.7 4.3-5 8.7-10 13-15 4.4-5 8.8-9.9 13.2-14.8 4.4-4.9 8.8-9.8 13.1-14.9 4.3-5.1 8.3-10.3 12.5-15.4 8.5-10.1 17.3-20 26.4-29.6l.3.2zM1137.4 455.9c.4 3.7.6 7.4.7 11.1.1 3.7.2 7.4.1 11.1-.1 3.7-.4 7.4-.5 11.1-.1 3.7 0 7.4.2 11.1.2 3.7.3 7.4.4 11.1.1 3.7.2 7.4.1 11.1-.1 7.4-.3 14.8-1 22.3h-.2c-.6-7.4-.9-14.8-1-22.3 0-3.7.1-7.4.1-11.1.1-3.7.2-7.4.4-11.1.2-3.7.3-7.4.2-11.1-.1-3.7-.4-7.4-.5-11.1-.1-3.7-.1-7.4.1-11.1.1-3.7.3-7.4.7-11.1h.2zM1045.8 396.3c-.5-3.5-1-7.1-1.5-10.6-.4-3.5-.8-7.1-1.2-10.6l-.1-1.1 1.1.1c5.5.7 11 1.4 16.5 2.4 5.5.9 10.9 1.9 16.4 2.6 5.5.8 11 1.3 16.5 1.9 5.5.6 11 1.2 16.5 1.9h.2l.2.2c2.3 1.7 4.6 3.3 6.9 5 2.3 1.7 4.6 3.4 6.8 5.1l6.8 5.2c2.2 1.8 4.5 3.5 6.7 5.3l.3.2v.3c-.1 4.4-.3 8.8-.6 13.2h-.2c-.3-4.4-.4-8.8-.6-13.2l.3.5c-2.3-1.6-4.7-3.3-7-4.9l-6.9-5-6.9-5.1c-2.3-1.7-4.5-3.5-6.8-5.2l.5.2c-5.5-.8-11-1.6-16.5-2.6-5.5-.9-11-1.9-16.5-2.6-5.5-.8-11-1.3-16.6-1.9-5.5-.5-11-1.3-16.5-2.1l1-.9c.3 3.6.5 7.1.7 10.7.2 3.6.3 7.1.4 10.7l.1.3z"/><path clip-path="url(#b)" fill="#524440" d="M1050.1 308.3c.1 2.8 0 5.6-.1 8.4-.1 2.8-.3 5.6-.7 8.3-.4 2.8-.9 5.5-1.3 8.3-.3 2.8-.5 5.6-.5 8.4-.1 2.8-.2 5.6-.4 8.4-.2 2.8-.3 5.6-.6 8.4-.6 5.6-1.3 11.1-2.5 16.6h-.2c-.1-5.6.1-11.2.5-16.8.2-2.8.6-5.6.9-8.3.3-2.8.7-5.5 1.1-8.3.4-2.8.8-5.5 1-8.3.2-2.8.1-5.6.2-8.4.1-2.8.4-5.6.8-8.3.4-2.8.8-5.5 1.4-8.3l.4-.1zM1126.1 319c.4 3.2.6 6.4.7 9.6.1 3.2.2 6.4.1 9.6-.1 3.2-.4 6.4-.5 9.6-.1 3.2 0 6.4.2 9.6.2 3.2.3 6.4.4 9.6.1 3.2.2 6.4.1 9.6-.1 6.4-.3 12.8-1 19.2h-.2c-.6-6.4-.9-12.8-1-19.2 0-3.2.1-6.4.1-9.6 0-3.2.2-6.4.4-9.6.2-3.2.3-6.4.2-9.6-.1-3.2-.4-6.4-.5-9.6-.1-3.2-.1-6.4.1-9.6.1-3.2.3-6.4.7-9.6h.2zM472.6 107.3c5.5 3.3 10.9 6.7 16.4 10l16.3 10.1-.3-.1c6.5.6 12.9 1.3 19.3 2s12.9 1.4 19.3 2.3c3.2.4 6.4.9 9.6 1.4 1.6.2 3.2.5 4.8.8 1.6.2 3.1.5 4.7.5 6.4.5 12.9.7 19.4.8 6.5.1 12.9.2 19.4.2 6.5 0 13-.1 19.4-.2 13-.2 25.9-.7 38.8-1.2l-.5.2c4.7-5.5 9.4-10.8 14.3-16.1 2.4-2.7 4.9-5.3 7.3-7.9 1.2-1.3 2.5-2.6 3.8-3.9 1.3-1.3 2.5-2.5 4.2-3.7 2.9-1.9 5.3-4.5 8.1-6.9 2.7-2.4 5.6-4.8 9-6.3 1.7-.8 3.6-1.3 5.6-1.3h1.5l1.3.1c.9.1 1.8.1 2.7.2 3.6.2 7.1.4 10.7.6 7.2.4 14.4.7 21.5 1.8 1.8.3 3.6.6 5.4 1.3 1.8.7 3.3 1.6 4.9 2.4 3.2 1.7 6.3 3.5 9.4 5.3 12.4 7.2 24.7 14.6 36.9 22.2l-.1.2-18.8-10.5c-6.2-3.5-12.5-7-18.8-10.5-3.1-1.7-6.3-3.5-9.4-5.1-1.6-.8-3.2-1.7-4.7-2.3-1.5-.6-3.3-.8-5.1-1.1-3.5-.5-7.1-.8-10.6-1-3.6-.2-7.1-.4-10.7-.6-3.6-.2-7.2-.3-10.8-.5-.9-.1-1.8-.1-2.7-.2l-1.4-.1h-1.2c-1.6.1-3.2.5-4.8 1.2-3.1 1.4-5.9 3.6-8.5 5.9-1.3 1.2-2.7 2.4-4 3.6l-2.1 1.8c-.4.3-.7.6-1.1.8-.4.3-.8.5-1.1.8-1.3.9-2.6 2.2-3.9 3.4-1.3 1.2-2.5 2.5-3.8 3.8-2.5 2.6-5 5.2-7.4 7.8-4.9 5.2-9.7 10.5-14.5 15.9l-.2.2h-.3l-38.9.5-38.9.4c-6.5 0-13 0-19.5-.3-1.6 0-3.3-.3-4.9-.5-1.6-.3-3.2-.5-4.8-.7-3.2-.5-6.4-.9-9.6-1.3-12.8-1.6-25.7-3.1-38.6-4.6h-.2l-.1-.1-16.1-10.5c-5.3-3.6-10.7-7.1-16-10.7l.4-.3zM686 238c-18.3-.3-36.6-.7-54.9-1.3l-27.4-.9c-9.1-.4-18.3-.7-27.4-1.1l-27.4-1.3-27.4-1.1c-18.3-.6-36.6-1.1-54.8-1.5h-.1l-.1-.1c-7.1-3.1-14.2-6-21.4-8.8-3.6-1.4-7.2-2.7-10.8-3.9l-2.7-.9-1.4-.4-1.4-.3c-.9-.3-1.8-.4-2.7-.5l-2.8-.2c-7.7-.4-15.4-.6-23.1-1l-23.1-.9-23.1-.9-23.1-1-23.1-1.1-23.1-1.2v-.2l23.2.4 23.2.5 23.1.6 11.6.3 11.6.4c15.4.6 30.8 1 46.3 2l2.9.2c1 .2 2 .3 3 .6l1.4.4 1.4.4c.9.3 1.9.6 2.8.9 3.7 1.2 7.3 2.6 10.9 4 7.2 2.9 14.3 5.9 21.3 9.1l-.3-.1c18.3.8 36.5 1.7 54.8 2.4l27.4.8 27.4.7c9.1.2 18.3.6 27.4.8l27.4 1.1c18.3.7 36.5 1.6 54.8 2.6l-.3.5z"/><path clip-path="url(#b)" fill="#524440" d="M639.2 272c.2-19 .8-38 1.8-57 .6-9.5 1.3-19 1.8-28.5s.8-19 1-28.5c.2-9.5.5-19 .9-28.5s.7-19 1.1-28.5c.9-19 2-38 3.5-56.9h.2c-.2 19-.8 38-1.6 57-.4 9.5-.9 19-1.4 28.5-.5 9.5-1 19-1.7 28.5-.6 9.5-1.1 19-1.5 28.5-.3 9.5-.5 19-.8 28.5-.7 19-1.7 38-3.3 56.9z"/><path clip-path="url(#b)" fill="#524440" d="M689 70.1c-4.5.2-9 .4-13.5.5-4.5.1-9 .2-13.5.2s-9 .1-13.5 0l-13.5-.3h-.2c-3.8-1.8-7.8-3.4-11.7-4.9-2-.7-4-1.5-6-2.1-1-.3-2-.6-3-.8-.3-.1-.5-.1-.7-.1h-2.3c-4.2-.1-8.5-.2-12.7-.1-2.1 0-4.2.1-6.3.3-2.1.2-4 .6-6 1.2-8 2.4-15.9 5.7-24.5 7-1.1.2-2.2.2-3.3.2-1.2 0-2.3-.2-3.3-.5-2.1-.5-4.2-1.3-6.1-2.2-3.9-1.8-7.6-4-11.1-6.4-2-2.3-4.1-4.5-6-6.8l.1-.1 6.6 6.3-.1-.1c3.6 2.2 7.3 4.1 11.2 5.7 1.9.8 3.9 1.5 5.9 1.9 1 .2 2 .3 3 .3.5 0 1-.1 1.5-.1s1-.1 1.5-.2c2-.3 4.1-.8 6.1-1.3s4-1.1 6-1.8c4-1.2 8-2.6 12.2-3.7 1-.3 2.1-.5 3.2-.8 1.1-.2 2.2-.3 3.2-.4 2.2-.1 4.3-.1 6.4-.1 4.3.1 8.5.4 12.7.7l1.6.1c.5 0 1.2.1 1.7.3 1.1.3 2.1.6 3.1 1 2 .7 4 1.4 6 2.2l11.9 4.6h-.2l13.5-.4c4.5-.1 9 0 13.5 0s9 .1 13.5.2 9 .3 13.5.5z"/><path clip-path="url(#b)" fill="#524440" d="M527.9 263c.2-16.8.8-33.6 1.8-50.4.6-8.4 1.3-16.8 1.8-25.2.5-8.4.8-16.8 1-25.2.2-8.4.5-16.8.9-25.2.3-8.4.7-16.8 1.1-25.2.9-16.8 2-33.6 3.5-50.3h.2c-.2 16.8-.8 33.6-1.5 50.4-.4 8.4-.9 16.8-1.4 25.2-.5 8.4-1 16.8-1.6 25.2-.6 8.4-1.1 16.8-1.5 25.2-.3 8.4-.5 16.8-.7 25.2-.7 16.8-1.7 33.6-3.2 50.3h-.4zM590.1 62c.3 14.4.2 28.8-.3 43.1-.3 7.2-.8 14.4-1 21.5-.2 7.2-.3 14.4-.3 21.6 0 7.2 0 14.4-.1 21.6-.1 7.2-.2 14.4-.4 21.6-.4 14.4-1 28.7-2 43.1h-.2c-.3-14.4-.2-28.8 0-43.1.1-7.2.4-14.4.6-21.5.2-7.2.5-14.4.9-21.5.3-7.2.6-14.4.7-21.5.1-7.2 0-14.4 0-21.6.2-14.4.7-28.7 1.7-43.1l.4-.2zM472.6 62.6c-16.1 0-32.1-.4-48.2-1.2-8-.5-16-1.1-24.1-1.4-8-.4-16-.6-24.1-.7-8-.1-16.1-.3-24.1-.6-8-.2-16.1-.5-24.1-.8-16-.7-32.1-1.6-48.1-2.9v-.2c16.1 0 32.1.4 48.2.9 8 .3 16 .7 24.1 1.1 8 .4 16 .8 24.1 1.3 8 .5 16 .9 24.1 1.2 8 .2 16.1.3 24.1.4 16.1.5 32.1 1.3 48.1 2.6v.3zM258 262.9c16.7 0 33.5.5 50.2 1.3 8.3.5 16.7 1.1 25 1.5 8.4.4 16.7.6 25.1.8 8.4.1 16.7.3 25.1.6 8.4.3 16.7.5 25.1.9 16.7.8 33.4 1.7 50.1 3v.2c-16.7 0-33.5-.5-50.2-1.1-8.4-.3-16.7-.7-25.1-1.2-8.4-.4-16.7-.9-25-1.4-8.3-.5-16.7-1-25.1-1.2-8.4-.3-16.7-.3-25.1-.5-16.7-.5-33.4-1.4-50.1-2.8v-.1z"/><path clip-path="url(#b)" fill="#524440" d="M289.1 234.4c.1 2.5.2 5 .2 7.5l.2 7.5.2 14.9h-1.5l-.1-17.6v-8.8l.1-8.8.3.7c-1.7-1.4-3-3.2-4.1-5-1.1-1.8-1.9-3.8-2.7-5.7-1.5-3.9-2.6-8-3.5-12-1.8-8.1-2.8-16.4-3.4-24.7-.3-4.1-.5-8.3-.5-12.5 0-4.2.1-8.3.8-12.5.2-1 .4-2.1.7-3.1.1-.5.4-1 .5-1.5l.5-1.4c.6-1.9.9-3.9 1.2-5.9.4-4.1.5-8.2.5-12.3-.1-8.3-.8-16.5-1.5-24.8-.3-4.1-.7-8.3-.9-12.4-.2-4.2 0-8.4.3-12.6.8-8.3 1.9-16.5 3.3-24.7.7-4.1 1.4-8.2 2.2-12.3.8-4.1 1.6-8.1 2.4-12.2h.2l-1.8 12.3c-.6 4.1-1.2 8.2-1.7 12.3-1 8.2-2.1 16.4-2.6 24.7-.2 4.1-.5 8.2-.2 12.3.3 4.1.6 8.3 1 12.4.7 8.3 1.2 16.6 1.2 24.9 0 4.2-.1 8.4-.7 12.5-.3 2.1-.7 4.2-1.4 6.2l-1.1 2.9c-.3.9-.5 1.9-.7 2.9-.8 4-1 8.2-1.2 12.3-.1 4.1-.1 8.3.2 12.4.5 8.3 1.6 16.5 3.6 24.5 1 4 2.2 8 3.8 11.7 1.6 3.7 3.7 7.4 6.7 9.9l.3.3v18l-.1 17.6h-1.5l.3-14.9.2-7.5c.1-2.5.1-5 .2-7.5h.1zM413.9 269.1c-.2-8.9.1-17.8.5-26.7.5-8.9 1.6-17.8 1.8-26.7.2-4.5.2-8.9.2-13.4.1-4.5.2-8.9.4-13.4.2-8.9.7-17.8 1.4-26.7v.3c-.9-2.9-1.8-5.8-2.7-8.6-.9-2.9-1.8-5.8-2.6-8.7l.2-.1c1.2 2.8 2.3 5.6 3.4 8.4l3.3 8.4.1.1v.2c-.2 8.9-.5 17.8-1.1 26.7-.3 4.4-.5 8.9-.9 13.3s-.7 8.9-1 13.3c-.6 8.9-.3 17.8-.7 26.7-.4 8.9-1 17.8-2 26.7l-.3.2zM385.4 158.1c1 1.6 1.8 3.2 2.8 4.8.9 1.6 1.8 3.2 2.6 4.9 1.7 3.3 3.4 6.6 5 9.9l.1.2v.2c-.3 7.6-1.4 15.2-1.8 22.8-.5 7.6-.3 15.2-.6 22.8l-.4 11.4-.3 5.7-.4 5.7-.9 11.4-.5 5.7-.6 5.7h-.2v-5.7l.1-5.7c0-3.8.2-7.6.3-11.4l.2-5.7.3-5.7.8-11.4c.5-7.6 1.5-15.2 1.8-22.8.4-7.6.1-15.2.6-22.8l.1.4c-1.6-3.3-3.2-6.7-4.7-10-.8-1.7-1.5-3.4-2.2-5.1l-2.1-5.1v-.2zM354.3 173.9c1.3 1.4 2.5 2.8 3.8 4.2 1.2 1.4 2.4 2.9 3.6 4.3 2.4 2.9 4.7 5.8 7 8.9l.2.3v.3c-.1 6.3-.7 12.5-.6 18.8.1 6.3.5 12.5.6 18.8l.1 9.4c0 3.1 0 6.3-.1 9.4-.1 3.1-.2 6.3-.3 9.4-.1 3.1-.3 6.3-.6 9.4h-.2c-.3-3.1-.4-6.3-.6-9.4-.2-3.1-.2-6.3-.3-9.4-.1-3.1-.1-6.3-.1-9.4l.1-9.4c.1-6.3.5-12.5.6-18.8.1-6.3-.4-12.5-.6-18.8l.2.5c-2.3-2.9-4.6-6-6.8-9-1.1-1.5-2.2-3.1-3.2-4.6-1.1-1.6-2.1-3.1-3.1-4.7l.3-.2zM331.1 186.8c2 2.8 3.9 5.6 5.5 8.6.8 1.5 1.7 3 2.4 4.5.8 1.5 1.5 3.1 2 4.8.1.4.3.8.4 1.3l.1.7.1.7c0 .9-.1 1.7-.1 2.6-.1 1.7-.2 3.4-.2 5.1-.1 3.4 0 6.8.2 10.2.2 3.4.3 6.8.4 10.2.1 3.4.2 6.8.1 10.2-.1 6.8-.3 13.6-1 20.4h-.2c-.6-6.8-.9-13.6-1-20.4 0-3.4.1-6.8.1-10.2 0-3.4.2-6.8.4-10.2.2-3.4.3-6.8.2-10.2 0-1.7-.1-3.4-.2-5.1-.1-.8-.1-1.7-.2-2.5l-.1-.5-.2-.6c-.1-.4-.3-.7-.4-1.1-2.6-6.1-5.9-12.1-8.6-18.3l.3-.2zM305.9 198.6c1.6 2.3 3 4.8 4.3 7.3 1.3 2.5 2.5 5.1 3.5 7.7.9 2.7 1.7 5.4 2.3 8.2.2.7.2 1.5.2 2.2v2.1c0 1.4.1 2.8.2 4.2.2 2.8.3 5.6.4 8.5.1 2.8.2 5.6.1 8.5-.1 5.6-.3 11.3-1 16.9h-.2c-.6-5.6-.9-11.3-1-16.9 0-2.8.1-5.6.1-8.5 0-2.8.2-5.6.4-8.5.1-1.4.2-2.8.2-4.2V224c0-.7-.1-1.3-.3-2-.3-1.3-.9-2.6-1.4-3.9-.6-1.3-1.2-2.5-1.8-3.8-1.2-2.5-2.3-5.1-3.4-7.7-1.1-2.6-2.2-5.2-3.1-7.9l.5-.1z"/><g fill="#504D4A"><path d="M997 200.5v5.2c0 .4.1.6.2.7s.4.2.7.2v.3h-3.8v-.3c.4 0 .6-.1.8-.2.2-.1.3-.4.3-.8v-2.9c0-.4 0-.7-.1-.9-.1-.2-.2-.3-.4-.4-.2-.1-.4-.1-.7-.1v-.3c.7 0 1.3-.1 1.7-.2.6.1 1-.1 1.3-.3zM1001.7 198.2c.7 0 1.3.2 1.7.5.4.3.7.7.7 1.2 0 .4-.2.8-.5 1.1s-.8.6-1.3.9l-.1-.2c.2-.2.3-.5.4-.9.1-.3.1-.6.1-.9 0-.5-.1-.9-.3-1.1-.2-.3-.4-.4-.8-.4-.3 0-.5.1-.6.3-.2.2-.2.4-.2.7 0 .3.1.7.3 1 .2.3.4.6.7.8.3.3.6.5.9.8.3.3.6.5.9.8.3.3.5.6.7.9.2.3.3.7.3 1 0 .4-.1.8-.4 1.2-.3.3-.6.6-1 .8-.4.2-.9.3-1.5.3-.5 0-1-.1-1.4-.2s-.8-.4-1-.7c-.3-.3-.4-.7-.4-1.1 0-.6.2-1.1.6-1.4.4-.4.9-.7 1.5-.9l.1.2c-.3.3-.4.6-.5.9-.1.4-.2.7-.2 1.1 0 .4 0 .7.1 1s.2.6.4.8.5.3.8.3c.4 0 .7-.1.9-.4.2-.2.3-.6.3-.9 0-.4-.1-.7-.3-1-.2-.3-.4-.6-.7-.9-.3-.3-.6-.5-.9-.8-.3-.3-.6-.5-.9-.8-.3-.3-.5-.6-.7-.9s-.3-.7-.3-1.1c0-.4.1-.8.4-1.1.2-.3.5-.5.9-.6.5-.2.9-.3 1.3-.3zM1008.5 198.2c.7 0 1.3.2 1.7.5.4.3.7.7.7 1.2 0 .4-.2.8-.5 1.1s-.8.6-1.3.9l-.1-.2c.2-.2.3-.5.4-.9.1-.3.1-.6.1-.9 0-.5-.1-.9-.3-1.1-.2-.3-.4-.4-.8-.4-.3 0-.5.1-.6.3-.2.2-.2.4-.2.7 0 .3.1.7.3 1 .2.3.4.6.7.8.3.3.6.5.9.8.3.3.6.5.9.8.3.3.5.6.7.9.2.3.3.7.3 1 0 .4-.1.8-.4 1.2-.3.3-.6.6-1 .8-.4.2-.9.3-1.5.3-.5 0-1-.1-1.4-.2s-.8-.4-1-.7c-.3-.3-.4-.7-.4-1.1 0-.6.2-1.1.6-1.4.4-.4.9-.7 1.5-.9l.1.2c-.3.3-.4.6-.5.9-.1.4-.2.7-.2 1.1 0 .4 0 .7.1 1s.2.6.4.8.5.3.8.3c.4 0 .7-.1.9-.4.2-.2.3-.6.3-.9 0-.4-.1-.7-.3-1-.2-.3-.4-.6-.7-.9-.3-.3-.6-.5-.9-.8-.3-.3-.6-.5-.9-.8-.3-.3-.5-.6-.7-.9s-.3-.7-.3-1.1c0-.4.1-.8.4-1.1.2-.3.5-.5.9-.6.4-.2.8-.3 1.3-.3zM1016.3 200.2v2h-3.5l-.2 2.1c.2-.1.4-.2.7-.3.3-.1.7-.1 1.1-.1.8 0 1.4.2 1.8.6.4.4.6.8.6 1.3s-.1.9-.4 1.2c-.3.4-.6.7-1.1.9s-1 .5-1.5.6c-.6.1-1.1.2-1.7.2v-.2c.5 0 1-.1 1.4-.3.4-.2.8-.5 1.1-.9s.4-.9.4-1.5c0-.5-.1-.9-.3-1.2-.2-.3-.6-.4-1-.4-.2 0-.4 0-.6.1-.2.1-.3.1-.5.3l-.2-.1.4-3.8h2.6c.2 0 .4 0 .5-.1.1-.1.1-.2.2-.4h.2zM1026.9 198.4c0 .4-.1.7-.1 1V201.1h-.3c-.1-.6-.2-1.1-.4-1.5-.2-.4-.4-.6-.7-.8-.3-.2-.6-.2-1-.2h-.4c-.2 0-.4 0-.5.1-.1 0-.2.1-.2.2s-.1.3-.1.6v6c0 .3 0 .5.1.7.1.2.2.3.4.3s.5.1.8.1v.3H1020.4v-.2c.3 0 .4 0 .6-.1.1 0 .2-.1.3-.3s.1-.4.1-.6v-6c0-.3 0-.5-.1-.7s-.1-.2-.3-.3c-.1-.1-.3-.1-.6-.1v-.2h6.5zm-1.8 4.1v.2h-2.2v-.2h2.2zm.3-1.6v2.4c0 .2 0 .6.1 1h-.3c0-.3-.1-.5-.2-.8-.1-.2-.3-.4-.5-.6s-.5-.2-.8-.2v-.2c.3 0 .6-.1.8-.3.2-.2.3-.4.4-.6.1-.2.2-.5.2-.7h.3zM1029 206.9c-.5 0-.9-.1-1.2-.4-.2-.3-.4-.6-.4-1 0-.3.1-.6.2-.8.2-.2.4-.4.6-.5.2-.1.5-.3.8-.3.3-.1.5-.2.8-.3.3-.1.5-.2.6-.3s.2-.3.2-.5v-.9c0-.2 0-.4-.1-.6-.1-.2-.2-.3-.3-.4-.1-.1-.3-.1-.5-.1s-.3 0-.5.1-.3.1-.4.2c.2.1.4.2.5.4s.2.4.2.6c0 .3-.1.5-.3.6-.2.2-.4.2-.7.2-.3 0-.5-.1-.7-.3-.1-.2-.2-.4-.2-.7 0-.2.1-.4.2-.6.1-.2.3-.3.5-.4.2-.1.5-.2.8-.3.3-.1.7-.1 1-.1.4 0 .7 0 1 .1.3.1.5.2.7.4.2.2.3.4.4.7s.1.6.1 1v3.3c0 .2 0 .3.1.4 0 .1.1.1.2.1s.2 0 .2-.1.1-.1.2-.1l.1.2c-.2.1-.4.3-.6.3-.2.1-.5.1-.7.1-.5 0-.8-.1-1-.3-.2-.2-.2-.4-.2-.7-.2.3-.4.6-.7.7-.2.3-.5.3-.9.3zm.9-.7c.2 0 .3 0 .4-.1s.3-.2.4-.4v-2.5c-.1.2-.2.3-.4.4s-.3.2-.5.3c-.2.1-.3.3-.4.5-.1.2-.2.4-.2.8 0 .3.1.6.2.7.1.2.3.3.5.3zM1037.8 200.5c.3 0 .5.1.6.2s.3.2.4.4c.1.2.1.3.1.5 0 .3-.1.5-.3.7s-.4.3-.7.3c-.3 0-.5-.1-.7-.2-.2-.1-.2-.3-.2-.6 0-.2 0-.4.2-.6.1-.1.2-.3.4-.4h-.3c-.2 0-.4.1-.6.3-.2.2-.3.4-.4.6-.1.2-.1.4-.1.7v3.2c0 .4.1.6.3.8.2.1.5.2.8.2v.3H1033.7v-.3c.3 0 .5-.1.6-.2.1-.1.2-.3.2-.7V202c0-.4-.1-.6-.2-.8-.1-.2-.3-.3-.6-.3v-.3h1.6c.3 0 .6-.1.8-.1v1.1c.1-.2.2-.4.4-.6.2-.2.3-.3.6-.4.2-.1.4-.1.7-.1zM1043.6 200.5c.3 0 .6 0 .8.1s.4.2.5.3l.3.6c.1.2.1.6.1 1v3.2c0 .3.1.6.2.7.1.1.3.2.5.2v.3h-3.1v-.3c.2 0 .4-.1.5-.2.1-.1.1-.3.1-.7V202v-.5c0-.1-.1-.3-.2-.3-.1-.1-.2-.1-.4-.1s-.4.1-.6.2-.3.3-.4.5c-.1.2-.2.5-.2.7v3.3c0 .3 0 .6.1.7.1.1.2.2.4.2v.3h-3v-.3c.3 0 .5-.1.6-.2.1-.1.2-.3.2-.7V202c0-.4-.1-.6-.2-.8-.1-.2-.3-.3-.6-.3v-.3h1.6c.3 0 .6-.1.8-.1v1.1c.2-.4.5-.7.8-.9.4-.1.8-.2 1.2-.2zm3.6 0c.3 0 .6 0 .8.1s.4.2.5.3l.3.6c.1.2.1.6.1 1v3.2c0 .3.1.6.2.7.1.1.3.2.6.2v.3h-3.1v-.3c.2 0 .4-.1.5-.2.1-.1.1-.3.1-.7V202c0-.2 0-.4-.1-.5 0-.1-.1-.3-.2-.3-.1-.1-.3-.1-.5-.1-.3 0-.6.1-.8.4-.2.3-.4.6-.4 1l-.1-.7c.2-.5.5-.8.9-1 .4-.2.8-.3 1.2-.3zM1052.5 200.5c.3 0 .6 0 .9.1s.4.2.5.2c.3.2.4.1.5-.4h.3v2.1h-.3c0-.3-.1-.6-.2-.9-.1-.3-.3-.5-.5-.7s-.5-.3-.8-.3c-.2 0-.4.1-.6.2-.2.1-.2.3-.2.6 0 .2.1.4.2.6.1.2.3.4.6.5s.5.3.7.5c.4.3.7.6 1 .9.3.3.4.7.4 1.2 0 .4-.1.7-.3.9s-.5.5-.8.6-.7.2-1.1.2c-.2 0-.5 0-.6-.1-.2 0-.4-.1-.5-.2-.1 0-.2-.1-.3-.1-.1 0-.2-.1-.3-.1-.1 0-.2 0-.2.1-.1.1-.1.2-.1.3h-.3v-.9-1.5h.3c0 .4.1.8.3 1.1s.3.6.5.8c.2.2.5.3.8.3.2 0 .4-.1.6-.2.2-.1.3-.3.3-.7 0-.4-.1-.6-.3-.9-.2-.2-.5-.5-.9-.8-.3-.2-.5-.4-.7-.6s-.4-.4-.6-.7c-.1-.2-.2-.5-.2-.8 0-.4.1-.7.3-.9.2-.2.4-.4.8-.6.1.2.4.2.8.2z"/></g><g fill="#504D4A"><path d="M998.3 214.2v2h-3.5l-.2 2.1c.2-.1.4-.2.7-.3.3-.1.7-.1 1.1-.1.8 0 1.4.2 1.8.6.4.4.6.8.6 1.3s-.1.9-.4 1.2c-.3.4-.6.7-1.1.9s-1 .5-1.5.6c-.6.1-1.1.2-1.7.2v-.2c.5 0 1-.1 1.4-.3.4-.2.8-.5 1.1-.9s.4-.9.4-1.5c0-.5-.1-.9-.3-1.2-.2-.3-.6-.4-1-.4-.2 0-.4 0-.6.1-.2.1-.3.1-.5.3l-.2-.1.4-3.8h2.6c.2 0 .4 0 .5-.1.1-.1.1-.2.2-.4h.2zM1003.8 214.2v2h-3.5l-.2 2.1c.2-.1.4-.2.7-.3.3-.1.7-.1 1.1-.1.8 0 1.4.2 1.8.6.4.4.6.8.6 1.3s-.1.9-.4 1.2c-.3.4-.6.7-1.1.9s-1 .5-1.5.6c-.6.1-1.1.2-1.7.2v-.2c.5 0 1-.1 1.4-.3.4-.2.8-.5 1.1-.9s.4-.9.4-1.5c0-.5-.1-.9-.3-1.2-.2-.3-.6-.4-1-.4-.2 0-.4 0-.6.1-.2.1-.3.1-.5.3l-.2-.1.4-3.8h2.6c.2 0 .4 0 .5-.1.1-.1.1-.2.2-.4h.2zM1009.3 214.2v2h-3.5l-.2 2.1c.2-.1.4-.2.7-.3.3-.1.7-.1 1.1-.1.8 0 1.4.2 1.8.6.4.4.6.8.6 1.3s-.1.9-.4 1.2c-.3.4-.6.7-1.1.9s-1 .5-1.5.6c-.6.1-1.1.2-1.7.2v-.2c.5 0 1-.1 1.4-.3.4-.2.8-.5 1.1-.9s.4-.9.4-1.5c0-.5-.1-.9-.3-1.2-.2-.3-.6-.4-1-.4-.2 0-.4 0-.6.1-.2.1-.3.1-.5.3l-.2-.1.4-3.8h2.6c.2 0 .4 0 .5-.1.1-.1.1-.2.2-.4h.2zM1013.1 214.5c.6 0 1.1.1 1.5.4s.6.6.6 1c0 .3-.1.6-.3.9-.2.3-.5.5-.8.7-.4.2-.8.3-1.3.4.5 0 1 0 1.5.2.4.1.8.3 1 .6s.4.6.4 1c0 .5-.1.9-.4 1.2-.3.4-.7.7-1.2.9-.5.3-1 .5-1.7.6-.6.1-1.2.2-1.8.2v-.2c.4 0 .8-.1 1.1-.2.4-.1.7-.3 1.1-.5.3-.2.6-.5.8-.9s.3-.7.3-1.2-.1-.9-.3-1.2c-.2-.3-.5-.5-.9-.5-.1.1-.2.1-.3.1-.1 0-.2.1-.3.1-.2 0-.2-.1-.2-.2s0-.2.1-.2.2-.1.3-.1h.4c.3-.2.6-.5.7-.8.1-.3.2-.6.2-.8 0-.4-.1-.6-.3-.8-.2-.2-.5-.3-.8-.3-.3 0-.6.1-.9.2-.3.2-.5.4-.7.7l-.2-.1c.1-.3.3-.5.5-.7.2-.2.5-.4.8-.6.3.2.7.1 1.1.1zM1019.2 212.4h3.7c1.1 0 1.9.2 2.5.5.6.4.8.9.8 1.5 0 .3-.1.5-.2.8-.1.3-.3.5-.6.8-.3.2-.6.4-1.1.6-.5.1-1 .2-1.8.2h-1.2v-.2h1c.5 0 .8-.1 1.1-.3s.4-.4.5-.7c.1-.3.1-.6.1-1 0-.6-.1-1.1-.3-1.5-.2-.3-.6-.5-1.2-.5-.3 0-.5.1-.6.2-.1.1-.1.4-.1.8v6c0 .3 0 .5.1.6s.1.2.3.3.3.1.6.1v.2h-3.7v-.2c.3 0 .4 0 .6-.1.1 0 .2-.1.3-.3s.1-.4.1-.6v-6c0-.3 0-.5-.1-.7s-.1-.2-.3-.3c-.1-.1-.3-.1-.6-.1v-.1zm2.3 4.2h.9c.3 0 .5 0 .7.1h.5c.7.1 1.3.2 1.6.5.3.2.6.6.7 1.1l.3 1.2c.1.3.1.5.2.7s.2.2.3.2c.1 0 .2 0 .3-.1.1 0 .1-.1.2-.2l.2.1c-.2.2-.4.4-.7.5s-.5.2-.9.2-.8-.1-1.1-.3-.5-.5-.6-1l-.2-1.2c-.1-.3-.1-.6-.2-.9s-.2-.5-.3-.6c-.1-.1-.3-.2-.6-.2h-1.3v-.1zM1029.9 214.5v5.2c0 .3.1.6.2.7.1.1.3.2.6.2v.3h-3.2v-.3c.3 0 .5-.1.6-.2.1-.1.2-.3.2-.7V216c0-.4-.1-.6-.2-.8-.1-.2-.3-.3-.6-.3v-.3h1.6c.3 0 .6 0 .8-.1zm-.9-2.9c.3 0 .6.1.8.2.2.2.3.4.3.7s-.1.5-.3.7c-.2.2-.5.2-.8.2s-.6-.1-.8-.2c-.2-.2-.3-.4-.3-.7s.1-.5.3-.7c.2-.2.5-.2.8-.2zM1034.3 214.5c.3 0 .6 0 .9.1s.5.2.6.3c.2.1.4.3.5.5.1.2.2.4.2.7 0 .3-.1.5-.3.7-.2.2-.4.3-.7.3s-.5-.1-.7-.2c-.2-.2-.3-.4-.3-.6 0-.3.1-.5.2-.6.2-.2.3-.3.6-.3-.1-.1-.2-.1-.3-.2-.1-.1-.3-.1-.4-.1-.2 0-.5.1-.7.2-.2.1-.3.3-.5.6l-.3.9c-.1.3-.1.7-.1 1.1 0 .6.1 1.1.2 1.5.2.4.4.6.6.7s.5.2.8.2c.2 0 .5-.1.8-.2.3-.1.6-.4.8-.8l.2.1c-.1.3-.2.6-.4.9-.2.3-.5.5-.8.7-.3.2-.7.3-1.2.3s-1-.1-1.4-.3-.8-.6-1-1.1-.4-1.1-.4-1.8.1-1.3.4-1.8c.3-.5.6-.9 1.1-1.1s1.1-.7 1.6-.7zM1039.4 211.5v4.1c.2-.4.5-.7.8-.9s.7-.2 1.1-.2c.3 0 .6 0 .8.1s.4.2.5.3c.1.2.2.3.3.6.1.2.1.6.1 1v3.2c0 .3.1.6.2.7.1.1.3.2.6.2v.3h-3.2v-.3c.2 0 .4-.1.5-.2.1-.1.1-.3.1-.7V216c0-.2 0-.4-.1-.5 0-.1-.1-.3-.2-.3s-.3-.1-.5-.1c-.3 0-.6.1-.8.4-.2.3-.3.6-.3 1v3.3c0 .3 0 .6.1.7.1.1.3.2.5.2v.3H1036.8v-.3c.3 0 .5-.1.6-.2.1-.1.2-.3.2-.7V213c0-.4-.1-.6-.2-.8-.1-.2-.3-.3-.6-.3v-.3h1.6c.5 0 .7-.1 1-.1zM1049.6 214.7v.2c-.2 0-.3.1-.4.3-.1.1-.3.4-.4.8l-1.8 5h-.8l-2.1-5.3c-.1-.3-.3-.5-.4-.6-.1-.1-.2-.1-.3-.1v-.3h3.3v.3h-.5c-.1 0-.2.1-.3.2v.5l1.4 3.7-.1.2.9-2.6c.2-.6.3-1.1.1-1.4-.2-.3-.4-.5-.8-.5v-.2h1.7c.2-.2.4-.2.5-.2zM1052.4 214.5v5.2c0 .3.1.6.2.7.1.1.3.2.6.2v.3h-3.2v-.3c.3 0 .5-.1.6-.2.1-.1.2-.3.2-.7V216c0-.4-.1-.6-.2-.8-.1-.2-.3-.3-.6-.3v-.3h1.6c.2 0 .5 0 .8-.1zm-1-2.9c.3 0 .6.1.8.2.2.2.3.4.3.7s-.1.5-.3.7c-.2.2-.5.2-.8.2s-.6-.1-.8-.2c-.2-.2-.3-.4-.3-.7s.1-.5.3-.7c.2-.2.5-.2.8-.2zM1056.1 211.5v8.3c0 .3.1.6.2.7.1.1.3.2.6.2v.3h-3.2v-.3c.3 0 .5-.1.6-.2.1-.1.2-.3.2-.7V213c0-.4-.1-.6-.2-.8-.1-.2-.3-.3-.6-.3v-.3h1.6c.3 0 .5-.1.8-.1zM1059.8 211.5v8.3c0 .3.1.6.2.7.1.1.3.2.6.2v.3h-3.2v-.3c.3 0 .5-.1.6-.2.1-.1.2-.3.2-.7V213c0-.4-.1-.6-.2-.8-.1-.2-.3-.3-.6-.3v-.3h1.6c.3 0 .6-.1.8-.1zM1064.2 214.5c.7 0 1.3.2 1.7.6.4.4.6 1.1.6 2h-3.9v-.2h2.5c0-.4 0-.8-.1-1.1-.1-.3-.1-.6-.3-.8-.1-.2-.3-.3-.5-.3-.3 0-.5.2-.7.5-.2.4-.3.9-.4 1.8v.7c0 .6.1 1 .2 1.3.2.3.4.6.6.8.2.2.5.2.7.2.2 0 .5-.1.8-.2.3-.1.6-.4.8-.8l.2.1c-.1.3-.2.6-.5.9s-.5.5-.8.7c-.3.2-.7.3-1.2.3s-1-.1-1.4-.3c-.4-.2-.7-.6-1-1.1s-.4-1.1-.4-1.8.1-1.4.4-1.9.6-.9 1-1.1c.6-.2 1.1-.3 1.7-.3zM1073.8 212.4c1.6 0 2.7.4 3.5 1.1.8.7 1.2 1.7 1.2 3.1 0 .9-.2 1.6-.6 2.3-.4.7-.9 1.2-1.6 1.5s-1.6.5-2.6.5h-3.5v-.2c.3 0 .4 0 .6-.1.1 0 .2-.1.3-.3s.1-.4.1-.6v-6c0-.3 0-.5-.1-.7s-.1-.2-.3-.3c-.1-.1-.3-.1-.6-.1v-.2H1073.8zm0 .2c-.4 0-.6.1-.7.2-.1.1-.2.4-.2.8v6c0 .4.1.7.2.8.1.1.4.2.7.2.7 0 1.2-.2 1.6-.5s.7-.8.8-1.4c.2-.6.3-1.3.3-2.2 0-1.3-.2-2.3-.6-3s-1.2-.9-2.1-.9zM1083.4 214.5c.3 0 .5.1.6.2s.3.2.4.4c.1.2.1.3.1.5 0 .3-.1.5-.3.7s-.4.3-.7.3c-.3 0-.5-.1-.7-.2-.2-.1-.2-.3-.2-.6 0-.2 0-.4.2-.6.1-.1.2-.3.4-.4h-.3c-.2 0-.4.1-.6.3-.2.2-.3.4-.4.6-.1.2-.1.4-.1.7v3.2c0 .4.1.6.3.8.2.1.5.2.8.2v.3H1079.3v-.3c.3 0 .5-.1.6-.2.1-.1.2-.3.2-.7V216c0-.4-.1-.6-.2-.8-.1-.2-.3-.3-.6-.3v-.3h1.6c.3 0 .6-.1.8-.1v1.1c.1-.2.2-.4.4-.6.2-.2.3-.3.6-.4.2-.1.4-.1.7-.1zM1085.7 219.2c.3 0 .6.1.7.2.2.2.3.4.3.7s-.1.5-.3.7c-.2.2-.4.2-.7.2-.3 0-.6-.1-.7-.2-.2-.2-.3-.4-.3-.7s.1-.5.3-.7c.2-.1.4-.2.7-.2zM1093.6 212.2c.5 0 .8 0 1.1.1s.5.2.7.3c.1.1.2.1.2.1h.2c.1 0 .2-.2.3-.5h.3v2.7h-.3c0-.4-.1-.8-.3-1.2-.2-.4-.4-.7-.7-1s-.6-.4-1.1-.4c-.4 0-.7.1-.9.3s-.4.5-.4.9c0 .3.1.6.2.8l.7.7c.3.2.7.5 1.1.8.4.2.7.5 1 .7s.5.5.7.8c.2.3.3.7.3 1.1 0 .5-.1 1-.4 1.3-.3.3-.6.6-1.1.8-.4.2-.9.3-1.5.3-.5 0-.9 0-1.2-.1-.3-.1-.5-.2-.7-.3-.2-.1-.3-.2-.4-.2-.1 0-.2.2-.3.5h-.3v-.7-1-1.6h.3c0 .5.1 1 .3 1.5s.4.8.7 1.1c.3.3.7.4 1.2.4.4 0 .8-.1 1.1-.3s.4-.6.4-1c0-.5-.2-.9-.5-1.2-.3-.3-.8-.7-1.3-1-.4-.2-.7-.5-1.1-.7s-.6-.5-.8-.9c-.2-.3-.3-.7-.3-1.1 0-.5.1-.9.4-1.2.3-.3.6-.6 1-.7.4 0 .9-.1 1.4-.1zM1100.3 212.4v.2c-.2 0-.3.1-.3.2-.1.1-.1.2-.1.4 0 .1 0 .3.1.5l1.8 5.3-.3.4 1.5-4.5.2.3-1.9 5.7h-.8l-2.7-7.5c-.1-.3-.2-.5-.4-.6-.1-.1-.3-.2-.4-.2v-.2H1100.3zm8.5 0v.2c-.2.1-.4.2-.6.4-.2.2-.4.5-.5 1l-2.1 6.9h-.8l-2.5-7.6c-.1-.2-.2-.4-.3-.5-.1-.1-.2-.1-.4-.1v-.2H1105v.2c-.2 0-.4 0-.6.1-.1 0-.2.1-.2.3 0 .1 0 .4.1.6l1.7 5.2-.3.5 1.4-4.3c.2-.6.3-1.1.3-1.4 0-.3-.1-.6-.3-.7-.2-.1-.4-.2-.8-.2v-.2h2c.3-.2.4-.2.5-.2z"/></g><g fill="#504D4A"><path d="M1001.8 227.4v.2c-.3 0-.4.1-.6.2-.1.1-.2.3-.3.5 0 .2-.1.5-.1.9v6.7h-.6l-5.2-6.6v4.6c0 .4 0 .8.1 1 0 .2.2.4.3.5.2.1.4.2.8.2v.2h-2.4v-.2c.3 0 .4-.1.6-.2.1-.1.2-.3.3-.5 0-.2.1-.5.1-.9v-5.4c0-.3 0-.5-.1-.7s-.1-.2-.3-.3c-.1-.1-.3-.1-.6-.1v-.2h2.2l4.6 5.7v-3.8c0-.4 0-.8-.1-1 0-.2-.2-.4-.3-.5s-.4-.2-.8-.2v-.2h1.9c.2.1.3.1.5.1zM1004 236c-.5 0-.9-.1-1.2-.4-.2-.3-.4-.6-.4-1 0-.3.1-.6.2-.8.2-.2.4-.4.6-.5.2-.1.5-.3.8-.3.3-.1.5-.2.8-.3.3-.1.5-.2.6-.3s.2-.3.2-.5v-.9c0-.2 0-.4-.1-.6-.1-.2-.2-.3-.3-.4-.1-.1-.3-.1-.5-.1s-.3 0-.5.1-.3.1-.4.2c.2.1.4.2.5.4s.2.4.2.6c0 .3-.1.5-.3.6-.2.2-.4.2-.7.2-.3 0-.5-.1-.7-.3-.1-.2-.2-.4-.2-.7 0-.2.1-.4.2-.6.1-.2.3-.3.5-.4.2-.1.5-.2.8-.3.3-.1.7-.1 1-.1.4 0 .7 0 1 .1.3.1.5.2.7.4.2.2.3.4.4.7s.1.6.1 1v3.3c0 .2 0 .3.1.4 0 .1.1.1.2.1s.2 0 .2-.1.1-.1.2-.1l.1.2c-.2.1-.4.3-.6.3-.2.1-.5.1-.7.1-.5 0-.8-.1-1-.3-.2-.2-.2-.4-.2-.7-.2.3-.4.6-.7.7-.2.2-.5.3-.9.3zm.9-.8c.2 0 .3 0 .4-.1s.3-.2.4-.4v-2.5c-.1.2-.2.3-.4.4s-.3.2-.5.3c-.2.1-.3.3-.4.5-.1.2-.2.4-.2.8 0 .3.1.6.2.7.1.2.3.3.5.3zM1014.1 229.7v.2c-.2 0-.3.1-.4.3-.1.1-.3.4-.4.8l-1.8 5h-.8l-2.1-5.3c-.1-.3-.3-.5-.4-.6-.1-.1-.2-.1-.3-.1v-.3h3.3v.3h-.5c-.1 0-.2.1-.3.2v.5l1.4 3.7-.1.2.9-2.6c.2-.6.3-1.1.1-1.4-.2-.3-.4-.5-.8-.5v-.2h1.7c.2-.2.4-.2.5-.2zM1016 236c-.5 0-.9-.1-1.2-.4-.2-.3-.4-.6-.4-1 0-.3.1-.6.2-.8.2-.2.4-.4.6-.5.2-.1.5-.3.8-.3.3-.1.5-.2.8-.3.3-.1.5-.2.6-.3s.2-.3.2-.5v-.9c0-.2 0-.4-.1-.6-.1-.2-.2-.3-.3-.4-.1-.1-.3-.1-.5-.1s-.3 0-.5.1-.3.1-.4.2c.2.1.4.2.5.4s.2.4.2.6c0 .3-.1.5-.3.6-.2.2-.4.2-.7.2-.3 0-.5-.1-.7-.3-.1-.2-.2-.4-.2-.7 0-.2.1-.4.2-.6.1-.2.3-.3.5-.4.2-.1.5-.2.8-.3.3-.1.7-.1 1-.1.4 0 .7 0 1 .1.3.1.5.2.7.4.2.2.3.4.4.7s.1.6.1 1v3.3c0 .2 0 .3.1.4 0 .1.1.1.2.1s.2 0 .2-.1.1-.1.2-.1l.1.2c-.2.1-.4.3-.6.3-.2.1-.5.1-.7.1-.5 0-.8-.1-1-.3-.2-.2-.2-.4-.2-.7-.2.3-.4.6-.7.7-.2.2-.5.3-.9.3zm.9-.8c.2 0 .3 0 .4-.1s.3-.2.4-.4v-2.5c-.1.2-.2.3-.4.4s-.3.2-.5.3c-.2.1-.3.3-.4.5-.1.2-.2.4-.2.8 0 .3.1.6.2.7.1.2.3.3.5.3zM1024.7 229.5c.3 0 .5.1.6.2s.3.2.4.4c.1.2.1.3.1.5 0 .3-.1.5-.3.7s-.4.3-.7.3c-.3 0-.5-.1-.7-.2-.2-.1-.2-.3-.2-.6 0-.2 0-.4.2-.6.1-.1.2-.3.4-.4h-.3c-.2 0-.4.1-.6.3-.2.2-.3.4-.4.6-.1.2-.1.4-.1.7v3.2c0 .4.1.6.3.8.2.1.5.2.8.2v.3H1020.6v-.3c.3 0 .5-.1.6-.2.1-.1.2-.3.2-.7V231c0-.4-.1-.6-.2-.8-.1-.2-.3-.3-.6-.3v-.3h1.6c.3 0 .6-.1.8-.1v1.1c.1-.2.2-.4.4-.6.2-.2.3-.3.6-.4.2-.1.5-.1.7-.1zM1030.3 229.5c.3 0 .5.1.6.2s.3.2.4.4c.1.2.1.3.1.5 0 .3-.1.5-.3.7s-.4.3-.7.3c-.3 0-.5-.1-.7-.2-.2-.1-.2-.3-.2-.6 0-.2 0-.4.2-.6.1-.1.2-.3.4-.4h-.3c-.2 0-.4.1-.6.3-.2.2-.3.4-.4.6-.1.2-.1.4-.1.7v3.2c0 .4.1.6.3.8.2.1.5.2.8.2v.3H1026.2v-.3c.3 0 .5-.1.6-.2.1-.1.2-.3.2-.7V231c0-.4-.1-.6-.2-.8-.1-.2-.3-.3-.6-.3v-.3h1.6c.3 0 .6-.1.8-.1v1.1c.1-.2.2-.4.4-.6.2-.2.3-.3.6-.4.2-.1.5-.1.7-.1zM1034.9 229.5c.7 0 1.3.2 1.7.6.4.4.6 1.1.6 2h-3.9v-.2h2.5c0-.4 0-.8-.1-1.1-.1-.3-.1-.6-.3-.8-.1-.2-.3-.3-.5-.3-.3 0-.5.2-.7.5-.2.4-.3.9-.4 1.8v.7c0 .6.1 1 .2 1.3.2.3.4.6.6.8.2.2.5.2.7.2.2 0 .5-.1.8-.2.3-.1.6-.4.8-.8l.2.1c-.1.3-.2.6-.5.9s-.5.5-.8.7c-.3.2-.7.3-1.2.3s-1-.1-1.4-.3c-.4-.2-.7-.6-1-1.1s-.4-1.1-.4-1.8.1-1.4.4-1.9.6-.9 1-1.1c.6-.2 1.1-.3 1.7-.3zM1039.1 234.2c.2 0 .4 0 .5.1.1.1.3.2.3.3.1.1.2.3.2.4s.1.4.1.6c0 .4-.1.8-.3 1.1-.2.3-.5.6-1 .8l-.1-.2c.2-.1.4-.2.6-.4.2-.2.3-.4.3-.6v-.5c-.2.2-.4.3-.7.3-.3 0-.5-.1-.7-.2-.2-.2-.3-.4-.3-.7 0-.3.1-.5.3-.7.3-.2.6-.3.8-.3zM1048.4 227.2c.8 0 1.6.2 2.2.5.6.3 1.1.8 1.5 1.5.4.6.5 1.4.5 2.3 0 .9-.2 1.7-.5 2.4-.4.7-.9 1.2-1.5 1.6-.6.4-1.4.6-2.2.6-.8 0-1.6-.2-2.2-.5-.6-.3-1.1-.8-1.5-1.5-.4-.6-.5-1.4-.5-2.3 0-.9.2-1.7.5-2.4.4-.7.9-1.2 1.5-1.6.6-.4 1.3-.6 2.2-.6zm-.1.2c-.4 0-.8.2-1.2.5-.3.4-.6.9-.8 1.5-.2.6-.3 1.4-.3 2.2 0 .8.1 1.6.3 2.2.2.6.5 1.1.8 1.5.3.3.7.5 1.2.5.4 0 .8-.2 1.2-.5.3-.4.6-.9.8-1.5.2-.6.3-1.4.3-2.2 0-.9-.1-1.6-.3-2.2s-.5-1.1-.8-1.4c-.4-.4-.8-.6-1.2-.6zM1053.5 235.9v-.2c.3 0 .4 0 .6-.1.1 0 .2-.1.3-.3s.1-.4.1-.6v-6c0-.3 0-.5-.1-.7s-.1-.2-.3-.3c-.1-.1-.3-.1-.6-.1v-.2h3.7v.2c-.3 0-.5 0-.6.1-.1.1-.2.1-.3.3s-.1.4-.1.7v6c0 .3 0 .5.1.6s.1.2.3.3.3.1.6.1v.2H1054.3c-.3-.1-.6 0-.8 0zm2.1-4.2v-.2h4.7v.2h-4.7zm3 4.2v-.2c.3 0 .4 0 .6-.1s.2-.1.3-.3.1-.4.1-.6v-6c0-.3 0-.5-.1-.7s-.1-.2-.3-.3c-.1-.1-.3-.1-.6-.1v-.2H1062.2v.2c-.3 0-.5 0-.6.1-.1.1-.2.1-.3.3s-.1.4-.1.7v6c0 .3 0 .5.1.6s.1.2.3.3.3.1.6.1v.2h-2.8c-.3-.1-.6 0-.8 0z"/></g><g fill="#504C49"><path d="M914.2 285.8c.1.1.3.2.5.4s.4.3.7.5l.9.6c.3.2.5.3.6.4.8.5 1.3 1.1 1.5 1.7.2.6.1 1.1-.2 1.6-.1.2-.3.4-.5.6-.2.2-.5.3-.8.4-.3.1-.7.1-1.1 0-.4-.1-.9-.3-1.4-.7l-1-.6.1-.2.9.6c.5.3.9.5 1.2.5.3 0 .7-.1.9-.3.3-.2.5-.4.7-.7.3-.5.5-1 .4-1.5-.1-.5-.4-.9-1-1.3-.3-.2-.5-.3-.7-.2-.2.1-.4.3-.6.6l-3.3 5c-.2.2-.3.4-.3.6 0 .1 0 .3.1.4.1.1.2.3.5.4l-.1.2c-.1-.1-.3-.2-.6-.4-.2-.2-.5-.3-.7-.5-.3-.2-.5-.3-.7-.5-.2-.1-.4-.3-.6-.3l.1-.2.6.3c.1 0 .3 0 .4-.1.1-.1.3-.3.4-.5l3.3-5c.2-.2.3-.4.3-.6 0-.1 0-.3-.1-.4-.1-.1-.2-.3-.5-.4l.1-.4zm-.7 4.6c.4.3.6.5.8.6.2.2.4.3.5.4l.3.3c.4.4.6.7.7 1 .1.3 0 .7-.2 1.2l-.4 1.2c-.1.3-.2.6-.2.8 0 .2.1.3.2.4.1.1.2.1.4.1.1 0 .3-.1.4-.1l.1.2c-.3.1-.5.2-.7.2-.2 0-.5-.1-.7-.3-.2-.2-.4-.4-.5-.6-.1-.3 0-.7.1-1.1l.4-1.1.3-.9c.1-.3.1-.5 0-.7-.1-.2-.2-.4-.5-.6l-1.1-.7.1-.3zM921.1 292.9l-2.9 4.3c-.2.3-.3.5-.2.7.1.2.2.4.5.5l-.1.2c-.1-.1-.3-.2-.5-.4s-.5-.3-.7-.5c-.2-.1-.5-.3-.7-.4-.2-.1-.4-.2-.5-.3l.1-.2c.3.2.5.3.7.2s.4-.2.6-.5l2.1-3.1c.2-.3.3-.6.3-.8 0-.2-.2-.4-.5-.6l.1-.2c.2.2.4.3.6.4l.6.3c.1.3.3.4.5.4zm1-2.7c.2.1.3.3.3.5s0 .4-.1.6c-.1.2-.3.3-.5.3s-.4 0-.6-.1c-.2-.1-.3-.3-.3-.5s0-.4.1-.6c.1-.2.3-.3.5-.3.2-.1.4 0 .6.1zM924.9 295.4c.2.1.4.3.6.5.2.2.3.4.4.6.1.2.1.4.1.6 0 .2-.1.4-.2.5-.1.2-.3.3-.4.3-.2 0-.3 0-.5-.1-.1-.1-.2-.2-.3-.4-.1-.2 0-.3.1-.5s.2-.2.4-.3h.4c0-.2 0-.3-.2-.5-.1-.2-.3-.4-.5-.5-.2-.1-.4-.2-.6-.2-.2 0-.5 0-.7.1-.3.1-.5.3-.8.5-.3.3-.6.6-.9 1.1-.4.6-.6 1.1-.7 1.5s-.1.8 0 1.1.3.5.6.7c.3.2.6.3.9.3.4 0 .8-.1 1.2-.4l.1.2c-.2.2-.5.3-.8.4-.3.1-.6.2-1 .1-.3 0-.7-.2-1-.4-.4-.3-.7-.6-.9-1.1s-.3-.9-.2-1.4c.1-.5.3-1.1.6-1.6.4-.5.8-1 1.2-1.3.5-.3 1-.4 1.5-.4.6.1 1.1.3 1.6.6zM930.3 295.3l-2.5 3.7c.5-.3.9-.5 1.3-.5s.8.2 1.1.4c.3.2.4.3.6.5s.2.4.2.6c0 .2 0 .4-.1.7-.1.2-.2.5-.5.9l-1.8 2.7c-.2.3-.3.5-.2.7s.2.4.5.5l-.1.2c-.1-.1-.3-.2-.5-.4s-.5-.3-.7-.5c-.2-.1-.4-.3-.7-.4-.2-.1-.4-.2-.5-.3l.1-.2c.2.2.4.2.6.2s.3-.2.5-.5l1.9-2.9.3-.6c.1-.2.1-.4.1-.6 0-.2-.2-.4-.4-.5-.4-.3-.9-.3-1.3-.2-.5.2-.9.5-1.3 1l-1.5 2.2c-.2.3-.3.5-.2.7 0 .2.2.3.4.5l-.1.2c-.1-.1-.3-.2-.5-.3s-.4-.3-.6-.4c-.2-.1-.5-.3-.7-.4-.2-.1-.4-.2-.5-.3l.1-.2c.3.2.5.3.7.2.2 0 .4-.2.6-.5l3.8-5.7c.2-.3.3-.6.3-.8 0-.2-.2-.4-.5-.6l.1-.2c.2.2.4.3.6.4l.6.3c.4.3.6.4.8.4zM937 303.6l-.1.2c-.1-.1-.3-.1-.5-.1s-.4.1-.7.3l-4.5 3.2s-.1 0-.1-.1c0 0-.1 0-.1-.1l1.1-5.7c.1-.3.1-.6 0-.7-.1-.1-.1-.2-.2-.3l.1-.2c.1.1.3.2.4.3.1.1.3.2.5.3.2.1.4.3.7.4.2.1.5.3.7.4l-.1.2c-.2-.1-.3-.2-.5-.3-.1-.1-.3-.1-.4 0-.1.1-.2.3-.3.6l-.8 3.9h-.1l3.1-2.2c.3-.2.5-.5.5-.7 0-.2-.2-.4-.5-.7l.1-.2c.2.1.3.2.4.3.1.1.2.2.4.3.2.1.3.2.4.3.3.5.4.5.5.6zM939.1 304.8l-2.9 4.3c-.2.3-.3.5-.2.7 0 .2.2.4.5.5l-.1.2c-.1-.1-.3-.2-.5-.4s-.5-.3-.7-.5c-.2-.1-.5-.3-.7-.4s-.4-.2-.5-.3l.1-.2c.3.2.5.3.7.2.2 0 .4-.2.6-.5l2.1-3.1c.2-.3.3-.6.3-.8s-.2-.4-.5-.6l.1-.2c.2.2.4.3.6.4l.6.3c.1.3.3.3.5.4zm1-2.8c.2.1.3.3.3.5s0 .4-.1.6c-.1.2-.3.3-.5.3s-.4 0-.6-.1c-.2-.1-.3-.3-.3-.5s0-.4.1-.6c.1-.2.3-.3.5-.3.3 0 .5 0 .6.1zM943.6 304.1L939 311c-.2.3-.3.5-.2.7 0 .2.2.4.5.5l-.1.2c-.1-.1-.3-.2-.5-.4s-.5-.3-.7-.5c-.2-.1-.5-.3-.7-.4-.2-.1-.4-.2-.5-.3l.1-.2c.3.2.5.3.7.2.2 0 .4-.2.6-.5l3.8-5.7c.2-.3.3-.6.3-.8 0-.2-.2-.4-.5-.6l.1-.2c.2.2.4.3.6.4l.6.3c.2.3.4.3.5.4zM946.5 306l-4.6 6.9c-.2.3-.3.5-.2.7s.2.4.5.5l-.1.2c-.1-.1-.3-.2-.5-.4s-.5-.3-.7-.5c-.2-.1-.5-.3-.7-.4-.2-.1-.4-.2-.5-.3l.1-.2c.3.2.5.3.7.2.2 0 .4-.2.6-.5l3.8-5.7c.2-.3.3-.6.3-.8 0-.2-.2-.4-.5-.6l.1-.2c.2.2.4.3.6.4l.6.3c.2.1.3.3.5.4zM948.5 311c.6.4.9.9 1 1.4.1.6-.1 1.2-.6 2l-3.5-2.3.1-.2 2.6 1.7c.2-.3.4-.6.5-1 .1-.3.2-.6.1-.9s-.2-.5-.4-.6c-.3-.2-.7-.2-1.1-.1-.4.2-.9.5-1.4 1.2v.1c-.1.1-.2.2-.2.3-.1.1-.2.2-.2.4-.3.5-.5.9-.6 1.3-.1.4 0 .8.1 1.1.1.3.3.6.6.7.3.2.6.3 1 .3.3 0 .7-.1 1.2-.4l.1.2c-.2.2-.5.3-.8.4-.3.1-.6.1-1 .1-.3 0-.7-.2-1-.4-.5-.3-.8-.7-1-1.1-.2-.4-.3-.9-.2-1.4.1-.5.3-1 .6-1.5.4-.6.8-1 1.3-1.3.5-.3.9-.5 1.4-.5.5 0 1 .2 1.4.5zM957.7 314.4c1.2.8 1.9 1.7 2.1 2.7.2 1-.1 2-.8 3.1-.5.7-1 1.3-1.7 1.6s-1.3.5-2.1.5c-.7-.1-1.5-.3-2.3-.8-.1-.1-.4-.2-.6-.4-.3-.2-.5-.4-.7-.5-.2-.2-.5-.3-.7-.5-.2-.1-.4-.3-.6-.3l.1-.2.6.3c.2.1.3 0 .4-.1.1-.1.3-.3.4-.5l3.3-5c.2-.2.3-.4.3-.6 0-.1 0-.3-.1-.4s-.2-.3-.5-.4l.1-.2c.1.1.3.2.5.4s.4.3.7.4c.2.1.5.3.8.5l.8.4zm-.3.1c-.3-.2-.5-.3-.7-.2-.2.1-.4.3-.6.6l-3.3 5c-.2.3-.3.6-.3.8 0 .2.2.4.5.6.7.5 1.4.7 2 .7s1.1-.2 1.6-.6c.5-.4 1-1 1.5-1.7.7-1.1 1.1-2.1 1-2.9s-.7-1.7-1.7-2.3zM964 321.2c.2.1.3.3.4.4.1.2.1.3.1.5s0 .3-.1.5-.3.3-.4.3c-.2.1-.4 0-.5-.1-.1-.1-.2-.2-.3-.4 0-.2 0-.3.1-.5l.3-.3c.1 0 .3-.1.4-.1 0-.1-.1-.2-.1-.2-.3-.2-.6-.2-.9-.2s-.7.2-1 .4-.5.4-.7.7l-1.4 2.1c-.2.3-.3.6-.1.8.1.2.3.5.7.7l-.1.2c-.2-.1-.4-.3-.6-.5l-.9-.6c-.2-.1-.5-.3-.7-.4-.2-.1-.4-.2-.5-.3l.1-.2c.3.2.5.3.7.2.2 0 .4-.2.6-.5l2.1-3.1c.2-.3.3-.6.3-.8 0-.2-.2-.4-.5-.6l.1-.2c.2.2.4.3.6.4l.6.3c.2.1.4.2.6.2l-.8 1.3c.2-.1.4-.3.7-.4.3-.1.5-.2.8-.2-.1.3.2.4.4.6zM963.2 326.6c.2.1.3.3.3.5s0 .4-.1.6c-.1.2-.3.3-.5.3s-.4 0-.6-.1c-.2-.1-.3-.3-.3-.5s0-.4.1-.6c.1-.2.3-.3.5-.3.3-.1.4 0 .6.1zM973.5 324.7c.3.2.6.4.7.6l.3.6c.1.1.1.2.1.2 0 .1.1.1.1.1.1.1.3 0 .5-.3l.2.2c-.1.1-.2.2-.3.4-.1.2-.3.4-.4.6-.2.3-.4.6-.7 1l-.2-.2c.2-.3.3-.7.4-1.1.1-.4.1-.7-.1-1.1s-.3-.6-.7-.9c-.4-.2-.7-.3-1.1-.3-.4.1-.7.3-.9.6-.2.3-.3.6-.3.9s.1.6.3 1c.1.3.3.7.5 1.1.2.4.4.9.5 1.2.1.4.2.8.2 1.1 0 .4-.1.7-.4 1.1-.3.4-.6.7-1 .9-.4.2-.8.2-1.2.1-.4-.1-.8-.2-1.2-.5-.4-.2-.6-.5-.8-.7s-.3-.4-.4-.6c-.1-.2-.2-.3-.2-.4-.1-.1-.3 0-.5.3l-.2-.2c.1-.1.2-.3.4-.5.1-.2.3-.4.5-.7.2-.3.5-.7.8-1.2l.2.2c-.2.4-.4.8-.5 1.3-.1.4-.1.8 0 1.2.1.4.4.7.8 1 .3.2.7.3 1.1.3.4 0 .8-.3 1.1-.7.3-.4.3-.8.2-1.3-.1-.5-.3-1-.6-1.6-.2-.4-.4-.8-.5-1.2-.1-.4-.2-.8-.2-1.1 0-.4.1-.7.4-1.1.3-.4.6-.7.9-.8.3-.1.7-.2 1.1-.1s.8.4 1.1.6zM978.4 328.1l-.1.2c-.2-.1-.3-.1-.4-.1-.1 0-.2.1-.3.2s-.1.3-.2.6l-1.6 5.8-.4.1 4.4-3.6v.3l-5.2 4.3 2-7.7c.1-.3.1-.6 0-.7-.1-.2-.2-.3-.3-.4l.1-.2c.1.1.3.2.5.3.2.1.4.3.6.4.2.1.4.3.6.4 0-.1.2 0 .3.1zm7 4.6l-.1.2c-.1-.1-.3-.1-.6-.1-.2 0-.5.2-.8.4L978 338l2-7.7c.1-.3.1-.6 0-.7s-.1-.3-.2-.3l.1-.2c.1.1.3.2.4.3.2.1.3.2.5.4.3.2.5.3.7.5.2.1.4.3.6.3l-.1.2c-.2-.1-.4-.2-.5-.3-.1 0-.3 0-.3.1-.1.1-.2.3-.3.6l-1.5 5.6h-.2l4.1-3.3c.4-.3.6-.5.7-.7.1-.2.1-.4.1-.6-.1-.2-.3-.4-.5-.6l.1-.2c.2.1.4.3.6.4.2.1.4.3.6.4.2.1.3.2.4.3-.1 0 0 .1.1.2z"/></g><text transform="matrix(.9997 -.026 .026 .9997 1083.175 59.547)"><tspan x="0" y="0" fill="#504C49" font-family="'Vollkorn-Regular'" font-size="12">6</tspan><tspan x="6.2" y="0" fill="#504C49" font-family="'Vollkorn-Regular'" font-size="12">2</tspan><tspan x="12" y="0" fill="#504C49" font-family="'Vollkorn-Regular'" font-size="12">7</tspan></text><g><path fill="#504C49" d="M1223.8 143h.2c0 .2 0 .4.1.5.1.1.2.1.3.1s.3 0 .6-.1l5.7-1.8.3.3-5.3-1.8.3-.2 6.4 2.1-7.6 2.4c-.3.1-.5.2-.6.4s-.2.3-.2.4h-.2v-.6-.7-.7-.3zm.2-8.4h.2c0 .2.1.3.3.5s.4.3.8.5l7.2 2.4-7.6 2.4c-.3.1-.5.2-.6.3s-.2.2-.2.4h-.2v-.5-.6-.9-.7h.2c0 .2 0 .4.1.6 0 .1.1.2.3.2.1 0 .4 0 .7-.1l5.6-1.7.1.2-4.9-1.7c-.4-.2-.8-.2-1-.2-.2 0-.4.1-.5.3-.1.2-.2.4-.2.8h-.2v-.7-.7-.5c-.1 0-.1-.2-.1-.3zM1223.5 148.8c0-.4.1-.7.2-.9.1-.2.2-.4.3-.5.1-.1.1-.2.1-.2v-.2c0-.1-.2-.2-.5-.3v-.3h2.4v.3c-.4 0-.8.1-1.1.2-.4.1-.6.3-.9.6s-.3.6-.4 1.1c0 .4.1.8.4 1.1s.6.4 1 .4.7-.1.9-.3c.2-.2.5-.4.7-.7.2-.3.4-.6.6-1 .3-.4.5-.8.8-1.1.3-.3.5-.6.8-.8.3-.2.7-.3 1.1-.3.5 0 .9.1 1.3.4.3.2.6.6.7.9.2.4.2.8.2 1.3 0 .4-.1.8-.2 1-.1.2-.2.5-.3.6-.1.2-.2.3-.2.4 0 .1.2.2.5.3v.3h-2.9v-.3c.5 0 .9-.1 1.3-.2s.8-.4 1-.7c.3-.3.4-.7.4-1.2 0-.4-.1-.8-.4-1.1-.2-.3-.6-.5-1.2-.5-.5 0-.9.2-1.2.5s-.7.8-1 1.3c-.2.4-.5.7-.7 1-.2.3-.5.6-.8.8-.3.2-.7.3-1.2.3s-.9-.1-1.2-.3c-.3-.2-.5-.5-.7-.8.3-.3.2-.7.2-1.1zM1225.7 156.8c0-.7.2-1.2.7-1.6.4-.4 1.1-.6 2-.6l-.1 4.2h-.2l.1-3.1c-.4 0-.8 0-1.1.1-.3.1-.6.2-.8.4s-.3.4-.3.7c0 .4.2.7.5 1 .4.3.9.5 1.7.5h.8c.5 0 1-.1 1.4-.2.4-.2.7-.4.9-.7.2-.3.3-.6.3-.9 0-.4-.1-.7-.2-1s-.5-.6-.9-.8l.1-.2c.3.1.5.2.8.4.2.2.4.5.6.8.1.3.2.7.2 1.1 0 .6-.2 1.1-.4 1.5-.3.4-.6.7-1.1.9-.5.2-1 .3-1.6.3-.7 0-1.3-.1-1.8-.4s-.9-.6-1.2-1c-.3-.4-.4-.9-.4-1.4zM1225.8 160.7h.2c0 .2.1.3.2.4.1.1.3.3.6.4l5.1 2.1v.2l-5.4 2.1c-.3.1-.5.2-.6.4-.1.1-.1.2-.1.3h-.3v-.5-.6-.8-.8h.3v.5c0 .2.1.3.2.3s.3 0 .7-.1l3.7-1.4.1.1-3.6-1.4c-.4-.2-.7-.2-.8-.1-.2.1-.3.4-.3.8h-.2v-.5-.5-.5c.2-.1.2-.2.2-.4zM1223.2 170.4l7.6-2.8c.3-.1.5-.2.6-.4.1-.2.2-.3.2-.4h.2V169.7h-.2c0-.4-.1-.7-.2-.8-.1-.1-.4-.1-.8.1l-6 2.1-.2-.2 5.4 2.2c.4.2.8.3 1 .3.2 0 .4-.1.5-.3.1-.2.2-.4.2-.8h.2v2.3h-.2c0-.2-.1-.3-.3-.5s-.4-.3-.8-.5l-7.2-3v-.2zm5.1-1.4h.2l-.1 3.6-.2-.1.1-3.5zM1222.2 178.9c0-.2 0-.4.1-.6s.1-.3.2-.4l.3-.3c.1-.1.3-.1.4-.1.2 0 .3.1.5.2.1.1.2.3.2.5s-.1.3-.2.5c-.1.1-.3.2-.5.2s-.3-.1-.4-.1c-.1-.1-.2-.2-.2-.4-.1 0-.1.1-.2.2s-.1.2-.1.4 0 .3.1.5l.3.3c.2.1.4.2.7.2.3 0 .8.1 1.5.1h.3v-1.3h.2v1.3l4.7.1c.4 0 .7-.1.8-.3.1-.2.2-.5.2-.9h.3V182.3h-.3c0-.3 0-.6-.2-.7s-.3-.2-.7-.2l-4.8-.1v1h-.2v-1c-.7 0-1.3-.1-1.6-.2-.4-.1-.7-.3-1-.5-.2-.2-.3-.4-.4-.6s0-.8 0-1.1zM1225.1 186.8l7.4.1c.3 0 .6-.1.7-.3.1-.2.2-.5.2-.8h.3v3h-.3c0-.3 0-.5-.1-.6s-.3-.2-.6-.2l-6-.1c-.4 0-.6.1-.8.2-.2.1-.3.4-.3.7h-.3c0-.3 0-.5.1-.7v-.7c-.2-.2-.2-.4-.3-.6zm0-1.9c0-.6.3-1.2.8-1.6.5-.4 1.3-.6 2.2-.6.6 0 1.1.1 1.7.3.5.2 1 .5 1.3.9.3.4.5.9.5 1.6 0 .4-.1.7-.3 1-.2.3-.4.5-.6.5l-.2-.1c.2-.1.4-.3.6-.5.2-.2.2-.5.2-.8 0-.4-.1-.8-.4-1.1s-.6-.4-1.1-.5c-.5-.1-1-.2-1.6-.2-.6 0-1.2 0-1.6.1-.4.1-.7.2-.9.5-.2.2-.3.5-.3.8 0 .4.1.8.5 1.1.3.3.8.5 1.5.6l-.2.1c-.7-.1-1.2-.4-1.6-.8-.3-.3-.5-.7-.5-1.3zM1225 192.2c0-.5.1-1 .4-1.4.2-.4.6-.7 1.1-1 .5-.2 1.1-.3 1.9-.3.8 0 1.4.1 1.9.4.5.3.8.6 1 1 .2.4.3.9.3 1.4 0 .5-.1 1-.4 1.4-.2.4-.6.7-1.1 1-.5.2-1.1.3-1.9.3-.8 0-1.4-.1-1.9-.4-.5-.3-.8-.6-1-1-.2-.4-.3-.9-.3-1.4zm.2 0c0 .5.2.8.7 1.1.5.3 1.2.5 2.3.5 1.1 0 1.8-.1 2.3-.4.5-.3.7-.7.7-1.1 0-.5-.2-.8-.7-1.1-.5-.3-1.2-.5-2.3-.5-1.1 0-1.8.1-2.3.4-.4.3-.7.6-.7 1.1zM1224.9 196.4c0-.2.1-.4.1-.6.1-.2.2-.3.3-.4.1-.1.3-.1.5-.1s.4.1.5.2c.2.1.2.3.2.5s-.1.3-.2.4-.3.2-.5.2-.3 0-.4-.1l-.3-.3c-.1.1-.1.1-.1.2 0 .3.1.6.4.9.2.3.5.5.9.6.3.1.7.2 1 .2h2.5c.4 0 .7-.1.8-.3.1-.2.2-.5.2-.9h.3V200.2h-.3c0-.3 0-.6-.2-.7-.1-.1-.3-.2-.7-.2l-3.8-.1c-.4 0-.6.1-.8.2-.2.1-.3.4-.3.7h-.3c0-.3 0-.5.1-.7v-.7c0-.2-.1-.4-.1-.6h1.5c-.2-.1-.5-.2-.7-.4l-.6-.6c.1-.1 0-.4 0-.7zM1222.6 205h.2c0 .3 0 .5.1.6 0 .1.1.2.3.3.1 0 .4.1.7.1l6 .1c.3 0 .5 0 .6-.1.1 0 .2-.1.3-.3.1-.1.1-.3.1-.6h.2V208.2h-.2c0-.3 0-.5-.1-.6 0-.1-.1-.2-.3-.3-.1-.1-.4-.1-.6-.1l-6-.1c-.3 0-.5 0-.7.1-.1 0-.2.1-.3.3s-.1.3-.1.6h-.2v-.7-.9-.8-.7zm.1-3.8h.2c0 .2.1.5.2.7.1.2.3.5.6.7l2.9 2.4-.6-.3 4.1-2.8c.2-.1.4-.3.5-.4l.3-.6h.2V203.5h-.2c0-.3-.1-.4-.1-.5s-.2 0-.4.1l-2.7 1.7c-.3.2-.4.3-.6.4-.1.1-.2.2-.3.4 0 .1-.1.3-.1.5h-.2c0-.3-.1-.6-.2-.8-.1-.2-.3-.4-.5-.6l-1.4-1.2c-.3-.3-.6-.5-.8-.6-.2-.1-.4-.1-.5 0-.1.1-.2.3-.2.7h-.2v-.7-.7-1z"/></g><g fill="#504C49"><path d="M1272.4 289.5c.3-.2.6-.4.8-.4s.4-.1.6-.1h.3c.1 0 .1 0 .2-.1s.1-.3-.1-.6l.2-.2c.1.1.2.3.2.4.1.2.2.4.4.6.2.3.4.6.7 1l-.2.2c-.2-.3-.5-.6-.8-.8s-.7-.3-1-.4-.7.1-1.1.3c-.4.2-.6.5-.7.9-.1.4 0 .7.2 1.1.2.3.4.5.7.6s.6.1 1 .1h2.5c.4 0 .8.1 1.1.3.3.1.6.4.8.8.3.4.4.8.4 1.3s-.1.8-.3 1.1c-.2.4-.5.7-.9.9-.4.2-.7.4-.9.4-.3.1-.5.1-.7.1-.2 0-.4 0-.4.1-.1.1-.1.3.1.6l-.2.2c-.1-.1-.2-.3-.3-.5-.1-.2-.3-.4-.5-.8-.2-.3-.5-.7-.8-1.2l.2-.2c.3.4.6.7 1 1 .4.3.7.4 1.1.5.4 0 .8-.1 1.2-.4.3-.2.6-.5.7-.9.1-.4 0-.8-.3-1.3-.3-.4-.6-.6-1.1-.7-.5-.1-1-.1-1.7-.1h-1.3c-.4 0-.8-.1-1.1-.3-.3-.2-.6-.4-.9-.8-.3-.4-.4-.8-.4-1.1 0-.4.1-.7.3-1s.7-.4 1-.6zM1276.7 285.7l2.5 3.7c-.1-.6-.1-1 .1-1.4.2-.4.5-.7.8-.9.3-.2.5-.3.7-.3h.6c.2 0 .4.2.6.3.2.2.4.4.6.8l1.8 2.7c.2.3.4.4.6.5.2 0 .4-.1.7-.2l.1.2c-.1.1-.3.2-.5.3-.2.1-.5.3-.7.4-.2.1-.4.3-.6.4-.2.2-.4.3-.5.3l-.1-.2c.2-.2.4-.3.4-.5s0-.4-.2-.7l-1.9-2.9c-.1-.2-.3-.4-.4-.5s-.3-.2-.5-.3c-.2 0-.4 0-.6.2-.4.3-.6.7-.7 1.2 0 .5.1 1 .5 1.6l1.5 2.2c.2.3.4.4.5.5.2 0 .4 0 .6-.2l.1.2c-.1.1-.3.2-.5.3-.2.1-.4.3-.7.4-.2.1-.4.3-.7.5-.2.2-.4.3-.5.4l-.1-.2c.3-.2.4-.4.5-.5 0-.2 0-.4-.2-.7l-3.8-5.7c-.2-.3-.4-.5-.6-.6-.2-.1-.4 0-.7.2l-.1-.2c.2-.1.4-.3.6-.4.2-.1.4-.3.5-.4 0-.2.1-.4.3-.5zM1285.1 283.7c.6-.4 1.2-.5 1.7-.4.6.1 1.1.6 1.6 1.3l-3.5 2.4-.1-.2 2.6-1.7c-.2-.3-.4-.6-.7-.8-.2-.2-.5-.4-.8-.5-.3-.1-.5 0-.7.1-.3.2-.5.5-.5 1s.2 1 .5 1.7h.1c.1.1.1.2.2.3.1.1.2.2.2.4.3.5.6.8 1 1 .4.2.7.3 1.1.4s.7-.1.9-.2c.3-.2.5-.5.7-.8.2-.3.2-.7.1-1.2l.3-.1c.1.3.1.6.1.9 0 .3-.1.6-.3.9-.2.3-.4.6-.7.8-.5.3-1 .5-1.5.5s-1-.1-1.4-.4c-.4-.3-.8-.7-1.2-1.2-.4-.6-.6-1.2-.7-1.7s-.1-1 .1-1.5c.1-.3.4-.7.9-1zM1289.3 280.9l4.1 6.1c.2.3.4.4.6.4.2 0 .5-.1.8-.3l.1.2c-.2.1-.4.2-.6.4-.3.2-.5.3-.8.5-.2.1-.4.3-.6.4-.2.1-.3.3-.4.3l-.1-.2c.2-.2.4-.3.4-.5s0-.3-.2-.6l-3.4-5c-.2-.3-.4-.5-.6-.6-.2-.1-.5 0-.7.2l-.1-.2c.2-.1.4-.2.6-.4.2-.1.4-.3.5-.4s.3-.1.4-.3zm1.6-1.1c.5-.4 1.1-.4 1.7-.3.6.2 1.2.7 1.8 1.5.3.5.6 1 .7 1.6.1.6.2 1.1 0 1.6s-.5 1-1 1.3c-.3.2-.6.3-1 .3-.3 0-.6-.1-.8-.2v-.2c.2.1.5.2.7.2.3 0 .5-.1.8-.3.4-.2.6-.6.6-.9.1-.4 0-.8-.2-1.2-.2-.4-.4-.9-.7-1.4-.4-.5-.7-.9-1-1.2-.3-.3-.6-.4-.9-.5-.3-.1-.6 0-.8.2-.3.2-.5.6-.6 1s0 1 .3 1.6l-.2-.1c-.3-.6-.4-1.2-.3-1.7.1-.5.4-1 .9-1.3zM1293.2 274.6l4.6 6.9c.2.3.4.4.6.5.2 0 .4-.1.7-.2l.1.2c-.1.1-.3.2-.5.3-.2.1-.5.3-.7.4-.2.2-.5.3-.7.5s-.4.3-.5.4l-.1-.2c.3-.2.4-.4.5-.5s0-.4-.2-.7l-3.8-5.7c-.2-.3-.4-.5-.6-.6-.2-.1-.5 0-.7.2l-.1-.2c.2-.1.4-.2.6-.4.2-.1.4-.3.5-.4 0-.2.2-.3.3-.5zM1298.6 274.7c.6-.4 1.2-.5 1.7-.4.6.1 1.1.6 1.6 1.3l-3.5 2.4-.1-.2 2.6-1.7c-.2-.3-.4-.6-.7-.8-.2-.2-.5-.4-.8-.5-.3-.1-.5 0-.7.1-.3.2-.5.5-.5 1s.2 1 .5 1.7h.1c.1.1.1.2.2.3.1.1.2.2.2.4.3.5.6.8 1 1 .4.2.7.3 1.1.4.3 0 .7-.1.9-.2.3-.2.5-.5.7-.8.2-.3.2-.7.1-1.2l.3-.1c.1.3.1.6.1.9 0 .3-.1.6-.3.9-.2.3-.4.6-.7.8-.5.3-1 .5-1.5.5s-1-.1-1.4-.4c-.4-.3-.8-.7-1.2-1.2-.4-.6-.6-1.2-.7-1.7-.1-.5-.1-1 .1-1.5.1-.3.4-.7.9-1zM1304.3 270.9c.2-.1.4-.2.5-.2.2 0 .4 0 .5.1.2.1.3.2.4.3.1.2.2.3.1.5 0 .2-.1.4-.3.5-.1.1-.3.1-.5.1s-.3-.1-.4-.3c-.1-.1-.1-.3-.1-.4 0-.1 0-.3.1-.4h-.3c-.3.2-.5.5-.5.8-.1.3-.1.7 0 1.1.1.4.2.7.4.9l1.4 2.1c.2.3.5.5.7.5.3 0 .6-.1.9-.4l.1.2c-.2.1-.4.2-.7.4l-.9.6c-.2.2-.4.3-.7.5-.2.2-.4.3-.5.4l-.1-.2c.3-.2.4-.4.5-.5 0-.2 0-.4-.2-.7l-2.1-3.1c-.2-.3-.4-.5-.6-.6-.2-.1-.4 0-.7.2l-.1-.2c.2-.1.4-.3.6-.4.2-.1.4-.3.5-.4.2-.1.3-.3.4-.4l.8 1.2c-.1-.2-.1-.5-.1-.8 0-.3.1-.6.2-.8.3-.3.5-.5.7-.6zM1310.2 264.1c.4-.3.8-.5 1.2-.5.4-.1.7-.1 1.1-.1.2 0 .3 0 .3-.2 0-.1-.1-.3-.2-.6l.2-.2c.2.3.3.6.6.9.2.4.5.8.9 1.4l-.2.2c-.2-.3-.4-.5-.6-.6-.2-.1-.3-.3-.4-.3-.1-.1-.3-.2-.5-.2-.4-.1-.8-.2-1.2-.1-.4.1-.8.2-1.1.5-.3.2-.6.5-.7.8-.2.3-.2.7-.2 1.2 0 .4.1.9.3 1.4.2.5.5 1 .8 1.6.4.6.8 1 1.2 1.4.4.4.8.6 1.2.8.4.2.8.2 1.2.2.4 0 .7-.2 1-.4.3-.2.6-.5.8-.8s.4-.7.4-1.1c0-.3 0-.6-.1-.8-.1-.3-.3-.6-.5-1.1l.2-.2c.4.6.7 1.1 1 1.5.3.4.5.7.7.9l-.2.2c-.2-.3-.4-.4-.5-.4-.1 0-.2 0-.3.2-.1.3-.3.7-.5 1-.2.3-.5.6-.9.9-.6.4-1.3.7-1.9.7-.7 0-1.3-.1-1.9-.5s-1.2-.9-1.7-1.7c-.5-.7-.8-1.5-.9-2.2-.1-.7 0-1.4.2-2.1.2-.8.6-1.3 1.2-1.7zM1314.9 260.1l2.5 3.7c-.1-.6-.1-1 .1-1.4.2-.4.5-.7.8-.9.3-.2.5-.3.7-.3h.6c.2 0 .4.2.6.3.2.2.4.4.6.8l1.8 2.7c.2.3.4.4.6.5.2 0 .4-.1.7-.2l.1.2c-.1.1-.3.2-.5.3-.2.1-.5.3-.7.4-.2.1-.4.3-.6.4-.2.2-.4.3-.5.3l-.1-.2c.2-.2.4-.3.4-.5s0-.4-.2-.7l-1.9-2.9c-.1-.2-.3-.4-.4-.5-.2-.2-.3-.2-.5-.3-.2 0-.4 0-.6.2-.4.3-.6.7-.7 1.2 0 .5.1 1 .5 1.6l1.5 2.2c.2.3.4.4.5.5.2 0 .4 0 .6-.2l.1.2c-.1.1-.3.2-.5.3-.2.1-.4.3-.7.4-.2.1-.4.3-.7.5-.2.2-.4.3-.5.4l-.1-.2c.3-.2.4-.4.5-.5 0-.2 0-.4-.2-.7l-3.8-5.7c-.2-.3-.4-.5-.6-.6-.2-.1-.4 0-.7.2l-.1-.2c.2-.1.4-.3.6-.4.2-.1.4-.3.5-.4 0-.2.1-.3.3-.5zM1325.4 256.8l2.8 4.2c.2.3.4.5.6.6.2.1.5 0 .7-.2l.1.2c-.2.1-.4.2-.6.4-.2.1-.4.3-.5.4-.2.1-.3.3-.4.4l-.8-1.2c.1.5.1 1-.1 1.4-.2.4-.4.7-.8.9-.2.2-.5.3-.7.3-.2 0-.4.1-.6 0-.2 0-.4-.2-.6-.3-.2-.2-.4-.4-.6-.7l-1.7-2.5c-.2-.3-.4-.5-.6-.6-.2-.1-.5 0-.7.2l-.1-.2c.2-.1.4-.3.6-.4.2-.1.4-.3.5-.4.2-.1.3-.3.4-.4l2.6 3.9c.1.2.3.4.4.5s.3.3.5.3.4 0 .6-.2c.4-.3.6-.7.6-1.2s-.1-1-.5-1.5l-1.4-2.1c-.2-.3-.4-.5-.6-.6-.2-.1-.4 0-.7.2l-.1-.2c.2-.1.4-.3.6-.4.2-.1.4-.3.5-.4.3-.1.5-.3.6-.4zM1329.7 253.8c.2-.1.4-.2.5-.2.2 0 .4 0 .5.1.2.1.3.2.4.3.1.2.2.3.1.5 0 .2-.1.4-.3.5-.1.1-.3.1-.5.1s-.3-.1-.4-.3c-.1-.1-.1-.3-.1-.4 0-.1 0-.3.1-.4h-.3c-.3.2-.5.5-.5.8-.1.3-.1.7 0 1.1.1.4.2.7.4.9l1.4 2.1c.2.3.5.5.7.5.3 0 .6-.1.9-.4l.1.2c-.2.1-.4.2-.7.4l-.9.6c-.2.2-.4.3-.7.5-.2.2-.4.3-.5.4l-.1-.2c.3-.2.4-.4.5-.5 0-.2 0-.4-.2-.7l-2.1-3.1c-.2-.3-.4-.5-.6-.6-.2-.1-.4 0-.7.2l-.1-.2c.2-.1.4-.3.6-.4.2-.1.4-.3.5-.4.2-.1.3-.3.4-.4l.8 1.2c-.1-.2-.1-.5-.1-.8 0-.3.1-.6.2-.8.3-.2.5-.4.7-.6zM1333.6 251.3c.2-.1.4-.3.7-.3.2-.1.5-.1.7-.1.2 0 .4 0 .6.1s.3.2.4.3c.1.2.2.4.1.5s-.1.3-.3.4c-.1.1-.3.1-.5.1s-.3-.1-.4-.3c-.1-.2-.1-.3-.1-.5 0-.1.1-.3.2-.4-.1-.1-.3-.1-.6-.1-.2 0-.4.1-.6.2-.2.1-.3.3-.4.5-.1.2-.2.4-.2.7 0 .3 0 .6.2 1 .1.4.3.8.7 1.3.4.6.8 1 1.1 1.3.4.3.7.4 1 .4s.6-.1.9-.3c.3-.2.5-.4.6-.8.2-.3.2-.7.1-1.2l.2-.1c.1.3.1.5.1.9 0 .3-.1.6-.2.9-.2.3-.4.6-.8.8-.4.3-.9.4-1.3.4-.5 0-.9-.1-1.4-.4-.5-.3-.9-.7-1.2-1.2-.4-.5-.6-1.1-.7-1.6-.1-.5 0-1.1.2-1.5.1-.3.4-.7.9-1zM1335.6 246.2l2.5 3.7c-.1-.6-.1-1 .1-1.4.2-.4.5-.7.8-.9.3-.2.5-.3.7-.3h.6c.2 0 .4.2.6.3.2.2.4.4.6.8l1.8 2.7c.2.3.4.4.6.5.2 0 .4-.1.7-.2l.1.2c-.1.1-.3.2-.5.3-.2.1-.5.3-.7.4-.2.1-.4.3-.6.4-.2.2-.4.3-.5.3l-.1-.2c.2-.2.4-.3.4-.5s0-.4-.2-.7l-1.9-2.9c-.1-.2-.3-.4-.4-.5-.1-.2-.3-.2-.5-.3-.2 0-.4 0-.6.2-.4.3-.6.7-.7 1.2 0 .5.1 1 .5 1.6l1.5 2.2c.2.3.4.4.5.5.2 0 .4 0 .6-.2l.1.2c-.1.1-.3.2-.5.3-.2.1-.4.3-.7.4-.2.1-.4.3-.7.5-.2.2-.4.3-.5.4l-.1-.2c.3-.2.4-.4.5-.5 0-.2 0-.4-.2-.7l-3.8-5.7c-.2-.3-.4-.5-.6-.6s-.5 0-.7.2l-.1-.2c.2-.1.4-.3.6-.4.2-.1.4-.3.5-.4.1-.2.2-.3.3-.5zM1345.8 240.4l6.6 4.6c.3.2.5.3.7.3.2 0 .3 0 .4-.1l.1.2c-.1.1-.3.2-.5.3-.2.1-.4.3-.6.4-.3.2-.5.3-.7.5-.2.2-.4.3-.5.4l-.1-.2c.3-.2.5-.4.5-.6 0-.2-.1-.4-.5-.6l-5.2-3.7.1-.2 1.3 5.7c.1.5.2.8.4 1s.3.3.5.3.4-.1.7-.3l.1.2c-.2.1-.4.2-.6.4-.2.1-.4.3-.6.4-.2.1-.3.2-.4.3-.1.1-.2.2-.3.2l-.1-.2c.1-.1.2-.3.3-.5.1-.2 0-.5 0-.9l-1.7-7.6c0-.2 0-.2.1-.3-.1.1 0 .1 0 0zm4 3.5l.1.2-3 2v-.3l2.9-1.9zM1354.4 237.5l.1.2c-.1.1-.2.2-.2.4s0 .4.1.7l1.2 5.4s-.1 0-.1.1c0 0-.1 0-.1.1l-4.8-3.2c-.3-.2-.5-.3-.6-.3-.1 0-.2 0-.3.1l-.1-.2c.1-.1.3-.2.4-.3.2-.1.3-.2.5-.3.2-.1.4-.3.6-.4.2-.2.4-.3.6-.5l.1.2c-.2.1-.3.2-.4.3-.1.1-.2.2-.1.4 0 .1.2.3.5.5l3.3 2.2v.1l-.9-3.7c-.1-.4-.2-.7-.4-.7-.2-.1-.5 0-.8.2l-.1-.2c.2-.1.3-.2.4-.3.1-.1.3-.2.4-.3s.3-.2.4-.3c.1 0 .2-.1.3-.2zM1357.1 235.5c.6-.4 1.2-.5 1.7-.4.6.1 1.1.6 1.6 1.3l-3.5 2.4-.1-.2 2.6-1.7c-.2-.3-.4-.6-.7-.8-.2-.2-.5-.4-.8-.5-.3-.1-.5 0-.7.1-.3.2-.5.5-.5 1s.2 1 .5 1.7h.1c.1.1.1.2.2.3.1.1.2.2.2.4.3.5.6.8 1 1 .4.2.7.3 1.1.4.3 0 .7-.1.9-.2.3-.2.5-.5.7-.8.2-.3.2-.7.1-1.2l.3-.1c.1.3.1.6.1.9 0 .3-.1.6-.3.9-.2.3-.4.6-.7.8-.5.3-1 .5-1.5.5s-1-.1-1.4-.4c-.4-.3-.8-.7-1.2-1.2-.4-.6-.6-1.2-.7-1.7-.1-.5-.1-1 .1-1.5.1-.3.4-.6.9-1zM1363.2 228.7c.3-.2.6-.4.8-.4.2 0 .4-.1.6-.1h.3c.1 0 .1 0 .2-.1s.1-.3-.1-.6l.2-.2c.1.1.2.3.2.4.1.2.2.4.4.6.2.3.4.6.7 1l-.2.2c-.2-.3-.5-.6-.8-.8-.3-.2-.7-.3-1-.4-.4 0-.7.1-1.1.3-.4.2-.6.5-.7.9-.1.4 0 .7.2 1.1.2.3.4.5.7.6s.6.1 1 .1h2.5c.4 0 .8.1 1.1.3s.6.4.8.8c.3.4.4.8.4 1.3 0 .4-.1.8-.3 1.1-.2.4-.5.7-.9.9-.4.2-.7.4-.9.4-.3.1-.5.1-.7.1-.2 0-.4 0-.4.1-.1.1-.1.3.1.6l-.2.2c-.1-.1-.2-.3-.3-.5-.1-.2-.3-.4-.5-.8-.2-.3-.5-.7-.8-1.2l.2-.2c.3.4.6.7 1 1 .4.3.7.4 1.1.5s.8-.1 1.2-.4c.3-.2.6-.5.7-.9.1-.4 0-.8-.3-1.3-.3-.4-.6-.6-1.1-.7-.5-.1-1-.1-1.7-.1h-1.3c-.4 0-.8-.1-1.1-.3-.3-.2-.6-.4-.9-.8-.3-.4-.4-.8-.4-1.1 0-.4.1-.7.3-1 .4-.1.6-.4 1-.6zM1368.2 225.5l.1.2c-.2.1-.3.2-.3.4 0 .1 0 .2.1.3.1.1.2.3.4.4l4.7 3.7-.1.4-1.6-5.4.3.1 1.9 6.4-6.3-4.9c-.3-.2-.5-.3-.7-.3-.2 0-.3 0-.4.1l-.1-.2c.1-.1.3-.2.5-.3.2-.1.4-.2.6-.4.2-.1.4-.3.6-.4 0 .1.1 0 .3-.1zm6.9-4.6l.1.2c-.1.1-.2.3-.3.5-.1.2 0 .5.1.9l2.2 7.3-6.3-4.9c-.3-.2-.5-.3-.6-.3-.2 0-.3 0-.4.1l-.1-.2c.1-.1.3-.2.5-.3.2-.1.4-.2.5-.3.3-.2.5-.3.7-.5.2-.2.4-.3.5-.4l.1.2c-.2.1-.3.3-.4.4-.1.1-.1.2-.1.4.1.1.2.3.5.5l4.6 3.6-.1.2-1.5-5c-.1-.4-.3-.8-.4-1-.1-.2-.3-.3-.5-.3s-.4.1-.7.3l-.1-.2c.2-.1.4-.2.6-.4.2-.1.4-.2.6-.4s.3-.2.4-.3l.1-.1z"/></g><path fill="none" stroke="#504D4A" stroke-miterlimit="10" d="M1078.7 48.8h25.3v13.8h-25.3z"/><path fill="#504D4A" d="M966.1 210.3l10.2 9.5v9.2h-20.5v-9.2l10.3-9.5zm0-3.9L953 218.6V232h26.2v-13.4l-13.1-12.2zm17.5 8.3l-17.5-16.2-17.5 16.2 2 2.1 15.5-14.4 15.5 14.4 2-2.1z"/><path fill="none" stroke="#E0C1B7" stroke-miterlimit="10" d="M966.1 210.3l10.2 9.5v9.2h-20.5v-9.2l10.3-9.5zm0-3.9L953 218.6V232h26.2v-13.4l-13.1-12.2zm17.5 8.3l-17.5-16.2-17.5 16.2 2 2.1 15.5-14.4 15.5 14.4 2-2.1z"/></svg>